<?xml version="1.0" encoding="utf-8" standalone="no"?>
<!DOCTYPE svg PUBLIC "-//W3C//DTD SVG 1.1//EN"
  "http://www.w3.org/Graphics/SVG/1.1/DTD/svg11.dtd">
<svg height="288pt" version="1.1" viewBox="0 0 576 288" width="576pt" xmlns="http://www.w3.org/2000/svg" xmlns:xlink="http://www.w3.org/1999/xlink">
 <metadata>
  <rdf:RDF xmlns:cc="http://creativecommons.org/ns#" xmlns:dc="http://purl.org/dc/elements/1.1/" xmlns:rdf="http://www.w3.org/1999/02/22-rdf-syntax-ns#">
   <cc:Work>
    <dc:type rdf:resource="http://purl.org/dc/dcmitype/StillImage"/>
    <dc:date>2021-09-09T14:47:37.338156</dc:date>
    <dc:format>image/svg+xml</dc:format>
    <dc:creator>
     <cc:Agent>
      <dc:title>Matplotlib v3.4.3, https://matplotlib.org/</dc:title>
     </cc:Agent>
    </dc:creator>
   </cc:Work>
  </rdf:RDF>
 </metadata>
 <defs>
  <style type="text/css">*{stroke-linecap:butt;stroke-linejoin:round;}</style>
 </defs>
 <g id="figure_1">
  <g id="patch_1">
   <path d="M 0 288 
L 576 288 
L 576 0 
L 0 0 
z
" style="fill:#ffffff;"/>
  </g>
  <g id="axes_1">
   <g id="patch_2">
    <path d="M 72 256.32 
L 518.4 256.32 
L 518.4 34.56 
L 72 34.56 
z
" style="fill:#ffffff;"/>
   </g>
   <g id="matplotlib.axis_1">
    <g id="xtick_1">
     <g id="line2d_1">
      <defs>
       <path d="M 0 0 
L 0 3.5 
" id="mbcee02b6c5" style="stroke:#000000;stroke-width:0.8;"/>
      </defs>
      <g>
       <use style="stroke:#000000;stroke-width:0.8;" x="92.290909" xlink:href="#mbcee02b6c5" y="256.32"/>
      </g>
     </g>
     <g id="text_1">
      <!-- 0 -->
      <g transform="translate(89.109659 270.918437)scale(0.1 -0.1)">
       <defs>
        <path d="M 2034 4250 
Q 1547 4250 1301 3770 
Q 1056 3291 1056 2328 
Q 1056 1369 1301 889 
Q 1547 409 2034 409 
Q 2525 409 2770 889 
Q 3016 1369 3016 2328 
Q 3016 3291 2770 3770 
Q 2525 4250 2034 4250 
z
M 2034 4750 
Q 2819 4750 3233 4129 
Q 3647 3509 3647 2328 
Q 3647 1150 3233 529 
Q 2819 -91 2034 -91 
Q 1250 -91 836 529 
Q 422 1150 422 2328 
Q 422 3509 836 4129 
Q 1250 4750 2034 4750 
z
" id="DejaVuSans-30" transform="scale(0.015625)"/>
       </defs>
       <use xlink:href="#DejaVuSans-30"/>
      </g>
     </g>
    </g>
    <g id="xtick_2">
     <g id="line2d_2">
      <g>
       <use style="stroke:#000000;stroke-width:0.8;" x="143.117259" xlink:href="#mbcee02b6c5" y="256.32"/>
      </g>
     </g>
     <g id="text_2">
      <!-- 1000 -->
      <g transform="translate(130.392259 270.918437)scale(0.1 -0.1)">
       <defs>
        <path d="M 794 531 
L 1825 531 
L 1825 4091 
L 703 3866 
L 703 4441 
L 1819 4666 
L 2450 4666 
L 2450 531 
L 3481 531 
L 3481 0 
L 794 0 
L 794 531 
z
" id="DejaVuSans-31" transform="scale(0.015625)"/>
       </defs>
       <use xlink:href="#DejaVuSans-31"/>
       <use x="63.623047" xlink:href="#DejaVuSans-30"/>
       <use x="127.246094" xlink:href="#DejaVuSans-30"/>
       <use x="190.869141" xlink:href="#DejaVuSans-30"/>
      </g>
     </g>
    </g>
    <g id="xtick_3">
     <g id="line2d_3">
      <g>
       <use style="stroke:#000000;stroke-width:0.8;" x="193.943608" xlink:href="#mbcee02b6c5" y="256.32"/>
      </g>
     </g>
     <g id="text_3">
      <!-- 2000 -->
      <g transform="translate(181.218608 270.918437)scale(0.1 -0.1)">
       <defs>
        <path d="M 1228 531 
L 3431 531 
L 3431 0 
L 469 0 
L 469 531 
Q 828 903 1448 1529 
Q 2069 2156 2228 2338 
Q 2531 2678 2651 2914 
Q 2772 3150 2772 3378 
Q 2772 3750 2511 3984 
Q 2250 4219 1831 4219 
Q 1534 4219 1204 4116 
Q 875 4013 500 3803 
L 500 4441 
Q 881 4594 1212 4672 
Q 1544 4750 1819 4750 
Q 2544 4750 2975 4387 
Q 3406 4025 3406 3419 
Q 3406 3131 3298 2873 
Q 3191 2616 2906 2266 
Q 2828 2175 2409 1742 
Q 1991 1309 1228 531 
z
" id="DejaVuSans-32" transform="scale(0.015625)"/>
       </defs>
       <use xlink:href="#DejaVuSans-32"/>
       <use x="63.623047" xlink:href="#DejaVuSans-30"/>
       <use x="127.246094" xlink:href="#DejaVuSans-30"/>
       <use x="190.869141" xlink:href="#DejaVuSans-30"/>
      </g>
     </g>
    </g>
    <g id="xtick_4">
     <g id="line2d_4">
      <g>
       <use style="stroke:#000000;stroke-width:0.8;" x="244.769957" xlink:href="#mbcee02b6c5" y="256.32"/>
      </g>
     </g>
     <g id="text_4">
      <!-- 3000 -->
      <g transform="translate(232.044957 270.918437)scale(0.1 -0.1)">
       <defs>
        <path d="M 2597 2516 
Q 3050 2419 3304 2112 
Q 3559 1806 3559 1356 
Q 3559 666 3084 287 
Q 2609 -91 1734 -91 
Q 1441 -91 1130 -33 
Q 819 25 488 141 
L 488 750 
Q 750 597 1062 519 
Q 1375 441 1716 441 
Q 2309 441 2620 675 
Q 2931 909 2931 1356 
Q 2931 1769 2642 2001 
Q 2353 2234 1838 2234 
L 1294 2234 
L 1294 2753 
L 1863 2753 
Q 2328 2753 2575 2939 
Q 2822 3125 2822 3475 
Q 2822 3834 2567 4026 
Q 2313 4219 1838 4219 
Q 1578 4219 1281 4162 
Q 984 4106 628 3988 
L 628 4550 
Q 988 4650 1302 4700 
Q 1616 4750 1894 4750 
Q 2613 4750 3031 4423 
Q 3450 4097 3450 3541 
Q 3450 3153 3228 2886 
Q 3006 2619 2597 2516 
z
" id="DejaVuSans-33" transform="scale(0.015625)"/>
       </defs>
       <use xlink:href="#DejaVuSans-33"/>
       <use x="63.623047" xlink:href="#DejaVuSans-30"/>
       <use x="127.246094" xlink:href="#DejaVuSans-30"/>
       <use x="190.869141" xlink:href="#DejaVuSans-30"/>
      </g>
     </g>
    </g>
    <g id="xtick_5">
     <g id="line2d_5">
      <g>
       <use style="stroke:#000000;stroke-width:0.8;" x="295.596307" xlink:href="#mbcee02b6c5" y="256.32"/>
      </g>
     </g>
     <g id="text_5">
      <!-- 4000 -->
      <g transform="translate(282.871307 270.918437)scale(0.1 -0.1)">
       <defs>
        <path d="M 2419 4116 
L 825 1625 
L 2419 1625 
L 2419 4116 
z
M 2253 4666 
L 3047 4666 
L 3047 1625 
L 3713 1625 
L 3713 1100 
L 3047 1100 
L 3047 0 
L 2419 0 
L 2419 1100 
L 313 1100 
L 313 1709 
L 2253 4666 
z
" id="DejaVuSans-34" transform="scale(0.015625)"/>
       </defs>
       <use xlink:href="#DejaVuSans-34"/>
       <use x="63.623047" xlink:href="#DejaVuSans-30"/>
       <use x="127.246094" xlink:href="#DejaVuSans-30"/>
       <use x="190.869141" xlink:href="#DejaVuSans-30"/>
      </g>
     </g>
    </g>
    <g id="xtick_6">
     <g id="line2d_6">
      <g>
       <use style="stroke:#000000;stroke-width:0.8;" x="346.422656" xlink:href="#mbcee02b6c5" y="256.32"/>
      </g>
     </g>
     <g id="text_6">
      <!-- 5000 -->
      <g transform="translate(333.697656 270.918437)scale(0.1 -0.1)">
       <defs>
        <path d="M 691 4666 
L 3169 4666 
L 3169 4134 
L 1269 4134 
L 1269 2991 
Q 1406 3038 1543 3061 
Q 1681 3084 1819 3084 
Q 2600 3084 3056 2656 
Q 3513 2228 3513 1497 
Q 3513 744 3044 326 
Q 2575 -91 1722 -91 
Q 1428 -91 1123 -41 
Q 819 9 494 109 
L 494 744 
Q 775 591 1075 516 
Q 1375 441 1709 441 
Q 2250 441 2565 725 
Q 2881 1009 2881 1497 
Q 2881 1984 2565 2268 
Q 2250 2553 1709 2553 
Q 1456 2553 1204 2497 
Q 953 2441 691 2322 
L 691 4666 
z
" id="DejaVuSans-35" transform="scale(0.015625)"/>
       </defs>
       <use xlink:href="#DejaVuSans-35"/>
       <use x="63.623047" xlink:href="#DejaVuSans-30"/>
       <use x="127.246094" xlink:href="#DejaVuSans-30"/>
       <use x="190.869141" xlink:href="#DejaVuSans-30"/>
      </g>
     </g>
    </g>
    <g id="xtick_7">
     <g id="line2d_7">
      <g>
       <use style="stroke:#000000;stroke-width:0.8;" x="397.249006" xlink:href="#mbcee02b6c5" y="256.32"/>
      </g>
     </g>
     <g id="text_7">
      <!-- 6000 -->
      <g transform="translate(384.524006 270.918437)scale(0.1 -0.1)">
       <defs>
        <path d="M 2113 2584 
Q 1688 2584 1439 2293 
Q 1191 2003 1191 1497 
Q 1191 994 1439 701 
Q 1688 409 2113 409 
Q 2538 409 2786 701 
Q 3034 994 3034 1497 
Q 3034 2003 2786 2293 
Q 2538 2584 2113 2584 
z
M 3366 4563 
L 3366 3988 
Q 3128 4100 2886 4159 
Q 2644 4219 2406 4219 
Q 1781 4219 1451 3797 
Q 1122 3375 1075 2522 
Q 1259 2794 1537 2939 
Q 1816 3084 2150 3084 
Q 2853 3084 3261 2657 
Q 3669 2231 3669 1497 
Q 3669 778 3244 343 
Q 2819 -91 2113 -91 
Q 1303 -91 875 529 
Q 447 1150 447 2328 
Q 447 3434 972 4092 
Q 1497 4750 2381 4750 
Q 2619 4750 2861 4703 
Q 3103 4656 3366 4563 
z
" id="DejaVuSans-36" transform="scale(0.015625)"/>
       </defs>
       <use xlink:href="#DejaVuSans-36"/>
       <use x="63.623047" xlink:href="#DejaVuSans-30"/>
       <use x="127.246094" xlink:href="#DejaVuSans-30"/>
       <use x="190.869141" xlink:href="#DejaVuSans-30"/>
      </g>
     </g>
    </g>
    <g id="xtick_8">
     <g id="line2d_8">
      <g>
       <use style="stroke:#000000;stroke-width:0.8;" x="448.075355" xlink:href="#mbcee02b6c5" y="256.32"/>
      </g>
     </g>
     <g id="text_8">
      <!-- 7000 -->
      <g transform="translate(435.350355 270.918437)scale(0.1 -0.1)">
       <defs>
        <path d="M 525 4666 
L 3525 4666 
L 3525 4397 
L 1831 0 
L 1172 0 
L 2766 4134 
L 525 4134 
L 525 4666 
z
" id="DejaVuSans-37" transform="scale(0.015625)"/>
       </defs>
       <use xlink:href="#DejaVuSans-37"/>
       <use x="63.623047" xlink:href="#DejaVuSans-30"/>
       <use x="127.246094" xlink:href="#DejaVuSans-30"/>
       <use x="190.869141" xlink:href="#DejaVuSans-30"/>
      </g>
     </g>
    </g>
    <g id="xtick_9">
     <g id="line2d_9">
      <g>
       <use style="stroke:#000000;stroke-width:0.8;" x="498.901705" xlink:href="#mbcee02b6c5" y="256.32"/>
      </g>
     </g>
     <g id="text_9">
      <!-- 8000 -->
      <g transform="translate(486.176705 270.918437)scale(0.1 -0.1)">
       <defs>
        <path d="M 2034 2216 
Q 1584 2216 1326 1975 
Q 1069 1734 1069 1313 
Q 1069 891 1326 650 
Q 1584 409 2034 409 
Q 2484 409 2743 651 
Q 3003 894 3003 1313 
Q 3003 1734 2745 1975 
Q 2488 2216 2034 2216 
z
M 1403 2484 
Q 997 2584 770 2862 
Q 544 3141 544 3541 
Q 544 4100 942 4425 
Q 1341 4750 2034 4750 
Q 2731 4750 3128 4425 
Q 3525 4100 3525 3541 
Q 3525 3141 3298 2862 
Q 3072 2584 2669 2484 
Q 3125 2378 3379 2068 
Q 3634 1759 3634 1313 
Q 3634 634 3220 271 
Q 2806 -91 2034 -91 
Q 1263 -91 848 271 
Q 434 634 434 1313 
Q 434 1759 690 2068 
Q 947 2378 1403 2484 
z
M 1172 3481 
Q 1172 3119 1398 2916 
Q 1625 2713 2034 2713 
Q 2441 2713 2670 2916 
Q 2900 3119 2900 3481 
Q 2900 3844 2670 4047 
Q 2441 4250 2034 4250 
Q 1625 4250 1398 4047 
Q 1172 3844 1172 3481 
z
" id="DejaVuSans-38" transform="scale(0.015625)"/>
       </defs>
       <use xlink:href="#DejaVuSans-38"/>
       <use x="63.623047" xlink:href="#DejaVuSans-30"/>
       <use x="127.246094" xlink:href="#DejaVuSans-30"/>
       <use x="190.869141" xlink:href="#DejaVuSans-30"/>
      </g>
     </g>
    </g>
    <g id="text_10">
     <!-- Frekvence [Hz] -->
     <g transform="translate(257.866406 284.596563)scale(0.1 -0.1)">
      <defs>
       <path d="M 628 4666 
L 3309 4666 
L 3309 4134 
L 1259 4134 
L 1259 2759 
L 3109 2759 
L 3109 2228 
L 1259 2228 
L 1259 0 
L 628 0 
L 628 4666 
z
" id="DejaVuSans-46" transform="scale(0.015625)"/>
       <path d="M 2631 2963 
Q 2534 3019 2420 3045 
Q 2306 3072 2169 3072 
Q 1681 3072 1420 2755 
Q 1159 2438 1159 1844 
L 1159 0 
L 581 0 
L 581 3500 
L 1159 3500 
L 1159 2956 
Q 1341 3275 1631 3429 
Q 1922 3584 2338 3584 
Q 2397 3584 2469 3576 
Q 2541 3569 2628 3553 
L 2631 2963 
z
" id="DejaVuSans-72" transform="scale(0.015625)"/>
       <path d="M 3597 1894 
L 3597 1613 
L 953 1613 
Q 991 1019 1311 708 
Q 1631 397 2203 397 
Q 2534 397 2845 478 
Q 3156 559 3463 722 
L 3463 178 
Q 3153 47 2828 -22 
Q 2503 -91 2169 -91 
Q 1331 -91 842 396 
Q 353 884 353 1716 
Q 353 2575 817 3079 
Q 1281 3584 2069 3584 
Q 2775 3584 3186 3129 
Q 3597 2675 3597 1894 
z
M 3022 2063 
Q 3016 2534 2758 2815 
Q 2500 3097 2075 3097 
Q 1594 3097 1305 2825 
Q 1016 2553 972 2059 
L 3022 2063 
z
" id="DejaVuSans-65" transform="scale(0.015625)"/>
       <path d="M 581 4863 
L 1159 4863 
L 1159 1991 
L 2875 3500 
L 3609 3500 
L 1753 1863 
L 3688 0 
L 2938 0 
L 1159 1709 
L 1159 0 
L 581 0 
L 581 4863 
z
" id="DejaVuSans-6b" transform="scale(0.015625)"/>
       <path d="M 191 3500 
L 800 3500 
L 1894 563 
L 2988 3500 
L 3597 3500 
L 2284 0 
L 1503 0 
L 191 3500 
z
" id="DejaVuSans-76" transform="scale(0.015625)"/>
       <path d="M 3513 2113 
L 3513 0 
L 2938 0 
L 2938 2094 
Q 2938 2591 2744 2837 
Q 2550 3084 2163 3084 
Q 1697 3084 1428 2787 
Q 1159 2491 1159 1978 
L 1159 0 
L 581 0 
L 581 3500 
L 1159 3500 
L 1159 2956 
Q 1366 3272 1645 3428 
Q 1925 3584 2291 3584 
Q 2894 3584 3203 3211 
Q 3513 2838 3513 2113 
z
" id="DejaVuSans-6e" transform="scale(0.015625)"/>
       <path d="M 3122 3366 
L 3122 2828 
Q 2878 2963 2633 3030 
Q 2388 3097 2138 3097 
Q 1578 3097 1268 2742 
Q 959 2388 959 1747 
Q 959 1106 1268 751 
Q 1578 397 2138 397 
Q 2388 397 2633 464 
Q 2878 531 3122 666 
L 3122 134 
Q 2881 22 2623 -34 
Q 2366 -91 2075 -91 
Q 1284 -91 818 406 
Q 353 903 353 1747 
Q 353 2603 823 3093 
Q 1294 3584 2113 3584 
Q 2378 3584 2631 3529 
Q 2884 3475 3122 3366 
z
" id="DejaVuSans-63" transform="scale(0.015625)"/>
       <path id="DejaVuSans-20" transform="scale(0.015625)"/>
       <path d="M 550 4863 
L 1875 4863 
L 1875 4416 
L 1125 4416 
L 1125 -397 
L 1875 -397 
L 1875 -844 
L 550 -844 
L 550 4863 
z
" id="DejaVuSans-5b" transform="scale(0.015625)"/>
       <path d="M 628 4666 
L 1259 4666 
L 1259 2753 
L 3553 2753 
L 3553 4666 
L 4184 4666 
L 4184 0 
L 3553 0 
L 3553 2222 
L 1259 2222 
L 1259 0 
L 628 0 
L 628 4666 
z
" id="DejaVuSans-48" transform="scale(0.015625)"/>
       <path d="M 353 3500 
L 3084 3500 
L 3084 2975 
L 922 459 
L 3084 459 
L 3084 0 
L 275 0 
L 275 525 
L 2438 3041 
L 353 3041 
L 353 3500 
z
" id="DejaVuSans-7a" transform="scale(0.015625)"/>
       <path d="M 1947 4863 
L 1947 -844 
L 622 -844 
L 622 -397 
L 1369 -397 
L 1369 4416 
L 622 4416 
L 622 4863 
L 1947 4863 
z
" id="DejaVuSans-5d" transform="scale(0.015625)"/>
      </defs>
      <use xlink:href="#DejaVuSans-46"/>
      <use x="50.269531" xlink:href="#DejaVuSans-72"/>
      <use x="89.132812" xlink:href="#DejaVuSans-65"/>
      <use x="150.65625" xlink:href="#DejaVuSans-6b"/>
      <use x="208.566406" xlink:href="#DejaVuSans-76"/>
      <use x="267.746094" xlink:href="#DejaVuSans-65"/>
      <use x="329.269531" xlink:href="#DejaVuSans-6e"/>
      <use x="392.648438" xlink:href="#DejaVuSans-63"/>
      <use x="447.628906" xlink:href="#DejaVuSans-65"/>
      <use x="509.152344" xlink:href="#DejaVuSans-20"/>
      <use x="540.939453" xlink:href="#DejaVuSans-5b"/>
      <use x="579.953125" xlink:href="#DejaVuSans-48"/>
      <use x="655.148438" xlink:href="#DejaVuSans-7a"/>
      <use x="707.638672" xlink:href="#DejaVuSans-5d"/>
     </g>
    </g>
   </g>
   <g id="matplotlib.axis_2">
    <g id="ytick_1">
     <g id="line2d_10">
      <defs>
       <path d="M 0 0 
L -3.5 0 
" id="m6f7b827b7c" style="stroke:#000000;stroke-width:0.8;"/>
      </defs>
      <g>
       <use style="stroke:#000000;stroke-width:0.8;" x="72" xlink:href="#m6f7b827b7c" y="238.618122"/>
      </g>
     </g>
     <g id="text_11">
      <!-- −5 -->
      <g transform="translate(50.257812 242.41734)scale(0.1 -0.1)">
       <defs>
        <path d="M 678 2272 
L 4684 2272 
L 4684 1741 
L 678 1741 
L 678 2272 
z
" id="DejaVuSans-2212" transform="scale(0.015625)"/>
       </defs>
       <use xlink:href="#DejaVuSans-2212"/>
       <use x="83.789062" xlink:href="#DejaVuSans-35"/>
      </g>
     </g>
    </g>
    <g id="ytick_2">
     <g id="line2d_11">
      <g>
       <use style="stroke:#000000;stroke-width:0.8;" x="72" xlink:href="#m6f7b827b7c" y="198.55952"/>
      </g>
     </g>
     <g id="text_12">
      <!-- 0 -->
      <g transform="translate(58.6375 202.358739)scale(0.1 -0.1)">
       <use xlink:href="#DejaVuSans-30"/>
      </g>
     </g>
    </g>
    <g id="ytick_3">
     <g id="line2d_12">
      <g>
       <use style="stroke:#000000;stroke-width:0.8;" x="72" xlink:href="#m6f7b827b7c" y="158.500919"/>
      </g>
     </g>
     <g id="text_13">
      <!-- 5 -->
      <g transform="translate(58.6375 162.300137)scale(0.1 -0.1)">
       <use xlink:href="#DejaVuSans-35"/>
      </g>
     </g>
    </g>
    <g id="ytick_4">
     <g id="line2d_13">
      <g>
       <use style="stroke:#000000;stroke-width:0.8;" x="72" xlink:href="#m6f7b827b7c" y="118.442317"/>
      </g>
     </g>
     <g id="text_14">
      <!-- 10 -->
      <g transform="translate(52.275 122.241536)scale(0.1 -0.1)">
       <use xlink:href="#DejaVuSans-31"/>
       <use x="63.623047" xlink:href="#DejaVuSans-30"/>
      </g>
     </g>
    </g>
    <g id="ytick_5">
     <g id="line2d_14">
      <g>
       <use style="stroke:#000000;stroke-width:0.8;" x="72" xlink:href="#m6f7b827b7c" y="78.383715"/>
      </g>
     </g>
     <g id="text_15">
      <!-- 15 -->
      <g transform="translate(52.275 82.182934)scale(0.1 -0.1)">
       <use xlink:href="#DejaVuSans-31"/>
       <use x="63.623047" xlink:href="#DejaVuSans-35"/>
      </g>
     </g>
    </g>
    <g id="ytick_6">
     <g id="line2d_15">
      <g>
       <use style="stroke:#000000;stroke-width:0.8;" x="72" xlink:href="#m6f7b827b7c" y="38.325114"/>
      </g>
     </g>
     <g id="text_16">
      <!-- 20 -->
      <g transform="translate(52.275 42.124333)scale(0.1 -0.1)">
       <use xlink:href="#DejaVuSans-32"/>
       <use x="63.623047" xlink:href="#DejaVuSans-30"/>
      </g>
     </g>
    </g>
    <g id="text_17">
     <!-- Velikost [dB] -->
     <g transform="translate(44.178125 176.761094)rotate(-90)scale(0.1 -0.1)">
      <defs>
       <path d="M 1831 0 
L 50 4666 
L 709 4666 
L 2188 738 
L 3669 4666 
L 4325 4666 
L 2547 0 
L 1831 0 
z
" id="DejaVuSans-56" transform="scale(0.015625)"/>
       <path d="M 603 4863 
L 1178 4863 
L 1178 0 
L 603 0 
L 603 4863 
z
" id="DejaVuSans-6c" transform="scale(0.015625)"/>
       <path d="M 603 3500 
L 1178 3500 
L 1178 0 
L 603 0 
L 603 3500 
z
M 603 4863 
L 1178 4863 
L 1178 4134 
L 603 4134 
L 603 4863 
z
" id="DejaVuSans-69" transform="scale(0.015625)"/>
       <path d="M 1959 3097 
Q 1497 3097 1228 2736 
Q 959 2375 959 1747 
Q 959 1119 1226 758 
Q 1494 397 1959 397 
Q 2419 397 2687 759 
Q 2956 1122 2956 1747 
Q 2956 2369 2687 2733 
Q 2419 3097 1959 3097 
z
M 1959 3584 
Q 2709 3584 3137 3096 
Q 3566 2609 3566 1747 
Q 3566 888 3137 398 
Q 2709 -91 1959 -91 
Q 1206 -91 779 398 
Q 353 888 353 1747 
Q 353 2609 779 3096 
Q 1206 3584 1959 3584 
z
" id="DejaVuSans-6f" transform="scale(0.015625)"/>
       <path d="M 2834 3397 
L 2834 2853 
Q 2591 2978 2328 3040 
Q 2066 3103 1784 3103 
Q 1356 3103 1142 2972 
Q 928 2841 928 2578 
Q 928 2378 1081 2264 
Q 1234 2150 1697 2047 
L 1894 2003 
Q 2506 1872 2764 1633 
Q 3022 1394 3022 966 
Q 3022 478 2636 193 
Q 2250 -91 1575 -91 
Q 1294 -91 989 -36 
Q 684 19 347 128 
L 347 722 
Q 666 556 975 473 
Q 1284 391 1588 391 
Q 1994 391 2212 530 
Q 2431 669 2431 922 
Q 2431 1156 2273 1281 
Q 2116 1406 1581 1522 
L 1381 1569 
Q 847 1681 609 1914 
Q 372 2147 372 2553 
Q 372 3047 722 3315 
Q 1072 3584 1716 3584 
Q 2034 3584 2315 3537 
Q 2597 3491 2834 3397 
z
" id="DejaVuSans-73" transform="scale(0.015625)"/>
       <path d="M 1172 4494 
L 1172 3500 
L 2356 3500 
L 2356 3053 
L 1172 3053 
L 1172 1153 
Q 1172 725 1289 603 
Q 1406 481 1766 481 
L 2356 481 
L 2356 0 
L 1766 0 
Q 1100 0 847 248 
Q 594 497 594 1153 
L 594 3053 
L 172 3053 
L 172 3500 
L 594 3500 
L 594 4494 
L 1172 4494 
z
" id="DejaVuSans-74" transform="scale(0.015625)"/>
       <path d="M 2906 2969 
L 2906 4863 
L 3481 4863 
L 3481 0 
L 2906 0 
L 2906 525 
Q 2725 213 2448 61 
Q 2172 -91 1784 -91 
Q 1150 -91 751 415 
Q 353 922 353 1747 
Q 353 2572 751 3078 
Q 1150 3584 1784 3584 
Q 2172 3584 2448 3432 
Q 2725 3281 2906 2969 
z
M 947 1747 
Q 947 1113 1208 752 
Q 1469 391 1925 391 
Q 2381 391 2643 752 
Q 2906 1113 2906 1747 
Q 2906 2381 2643 2742 
Q 2381 3103 1925 3103 
Q 1469 3103 1208 2742 
Q 947 2381 947 1747 
z
" id="DejaVuSans-64" transform="scale(0.015625)"/>
       <path d="M 1259 2228 
L 1259 519 
L 2272 519 
Q 2781 519 3026 730 
Q 3272 941 3272 1375 
Q 3272 1813 3026 2020 
Q 2781 2228 2272 2228 
L 1259 2228 
z
M 1259 4147 
L 1259 2741 
L 2194 2741 
Q 2656 2741 2882 2914 
Q 3109 3088 3109 3444 
Q 3109 3797 2882 3972 
Q 2656 4147 2194 4147 
L 1259 4147 
z
M 628 4666 
L 2241 4666 
Q 2963 4666 3353 4366 
Q 3744 4066 3744 3513 
Q 3744 3084 3544 2831 
Q 3344 2578 2956 2516 
Q 3422 2416 3680 2098 
Q 3938 1781 3938 1306 
Q 3938 681 3513 340 
Q 3088 0 2303 0 
L 628 0 
L 628 4666 
z
" id="DejaVuSans-42" transform="scale(0.015625)"/>
      </defs>
      <use xlink:href="#DejaVuSans-56"/>
      <use x="60.658203" xlink:href="#DejaVuSans-65"/>
      <use x="122.181641" xlink:href="#DejaVuSans-6c"/>
      <use x="149.964844" xlink:href="#DejaVuSans-69"/>
      <use x="177.748047" xlink:href="#DejaVuSans-6b"/>
      <use x="232.033203" xlink:href="#DejaVuSans-6f"/>
      <use x="293.214844" xlink:href="#DejaVuSans-73"/>
      <use x="345.314453" xlink:href="#DejaVuSans-74"/>
      <use x="384.523438" xlink:href="#DejaVuSans-20"/>
      <use x="416.310547" xlink:href="#DejaVuSans-5b"/>
      <use x="455.324219" xlink:href="#DejaVuSans-64"/>
      <use x="518.800781" xlink:href="#DejaVuSans-42"/>
      <use x="587.404297" xlink:href="#DejaVuSans-5d"/>
     </g>
    </g>
   </g>
   <g id="line2d_16">
    <path clip-path="url(#pfb4651185e)" d="M 92.290909 44.64 
L 93.083523 173.998759 
L 93.876136 171.105391 
L 94.66875 163.176211 
L 95.461364 170.914088 
L 96.253977 175.004874 
L 97.046591 172.525968 
L 97.839205 161.802003 
L 98.631818 178.807768 
L 99.424432 179.144102 
L 100.217045 145.570281 
L 101.009659 179.157533 
L 101.802273 180.436063 
L 102.594886 176.190212 
L 103.3875 180.537724 
L 104.180114 181.175433 
L 105.765341 180.792209 
L 106.557955 180.389797 
L 107.350568 178.785976 
L 108.143182 180.795931 
L 108.935795 180.553536 
L 109.728409 176.646891 
L 110.521023 197.537861 
L 111.313636 179.96074 
L 112.10625 166.142527 
L 112.898864 205.748014 
L 113.691477 174.998912 
L 114.484091 199.942318 
L 115.276705 210.876589 
L 116.069318 187.343742 
L 116.861932 211.691622 
L 117.654545 213.57946 
L 118.447159 213.267145 
L 119.239773 212.566839 
L 120.032386 211.347122 
L 121.617614 201.499275 
L 122.410227 211.889265 
L 123.202841 208.11833 
L 123.995455 142.797685 
L 124.788068 209.953544 
L 125.580682 207.811879 
L 126.373295 178.658706 
L 127.165909 205.943268 
L 127.958523 204.104661 
L 128.751136 183.204685 
L 129.54375 195.370182 
L 130.336364 188.117568 
L 131.128977 204.402361 
L 131.921591 203.008001 
L 132.714205 198.867743 
L 133.506818 195.951687 
L 134.299432 180.93689 
L 135.092045 201.620472 
L 135.884659 187.720449 
L 136.677273 179.998278 
L 137.469886 196.716432 
L 138.2625 196.899156 
L 139.055114 167.059362 
L 139.847727 176.31809 
L 140.640341 199.231106 
L 141.432955 164.444553 
L 142.225568 182.185644 
L 143.018182 196.762126 
L 143.810795 157.384773 
L 144.603409 191.223808 
L 145.396023 179.864902 
L 146.188636 202.377005 
L 146.98125 166.891585 
L 148.566477 199.20038 
L 149.359091 111.816382 
L 150.151705 161.003544 
L 150.944318 195.315146 
L 151.736932 166.208598 
L 152.529545 172.712314 
L 153.322159 194.050311 
L 154.114773 182.152262 
L 154.907386 184.140852 
L 155.7 169.79026 
L 156.492614 168.952731 
L 157.285227 191.453967 
L 158.077841 198.506326 
L 158.870455 199.231361 
L 159.663068 191.152669 
L 160.455682 171.597328 
L 161.248295 180.217419 
L 162.040909 167.421407 
L 162.833523 183.564545 
L 163.626136 160.952137 
L 164.41875 148.939608 
L 165.211364 165.962944 
L 166.003977 165.644147 
L 166.796591 174.587551 
L 167.589205 178.468528 
L 168.381818 141.5017 
L 169.174432 161.7026 
L 169.967045 161.6 
L 170.759659 174.460898 
L 171.552273 172.973219 
L 172.344886 169.943326 
L 173.1375 164.542677 
L 173.930114 166.555892 
L 174.722727 136.574026 
L 175.515341 164.473959 
L 176.307955 177.738186 
L 177.100568 144.056185 
L 177.893182 175.815804 
L 178.685795 180.552533 
L 179.478409 164.63371 
L 180.271023 175.256998 
L 181.063636 152.173552 
L 181.85625 175.465409 
L 182.648864 160.030784 
L 183.441477 206.213904 
L 184.234091 239.693019 
L 185.026705 246.24 
L 185.819318 234.046002 
L 187.404545 152.275232 
L 188.197159 182.493114 
L 188.989773 198.795997 
L 189.782386 157.525163 
L 190.575 163.893526 
L 191.367614 193.655258 
L 192.160227 168.9566 
L 192.952841 150.29813 
L 193.745455 190.804531 
L 194.538068 177.239391 
L 195.330682 158.303176 
L 196.123295 188.292674 
L 196.915909 207.574709 
L 197.708523 207.338111 
L 198.501136 208.964127 
L 199.29375 205.567754 
L 200.086364 179.778402 
L 200.878977 161.325982 
L 201.671591 188.159038 
L 202.464205 168.808367 
L 203.256818 168.820952 
L 204.049432 185.086508 
L 204.842045 162.340818 
L 205.634659 166.896462 
L 206.427273 180.024749 
L 207.219886 168.652725 
L 208.0125 175.190946 
L 208.805114 165.282899 
L 209.597727 195.221451 
L 210.390341 219.199442 
L 211.182955 217.695768 
L 211.975568 214.211256 
L 212.768182 199.612184 
L 213.560795 175.844001 
L 214.353409 187.136491 
L 215.146023 211.64109 
L 215.938636 185.296151 
L 216.73125 173.147972 
L 217.523864 178.434964 
L 218.316477 188.78999 
L 219.109091 161.18424 
L 219.901705 184.247275 
L 220.694318 181.586085 
L 221.486932 183.354681 
L 222.279545 182.805129 
L 223.072159 179.433894 
L 223.864773 208.767156 
L 224.657386 215.249854 
L 225.45 209.370141 
L 226.242614 178.510086 
L 227.035227 172.2235 
L 227.827841 163.7929 
L 228.620455 184.167929 
L 229.413068 172.939152 
L 230.205682 167.223953 
L 230.998295 181.699858 
L 231.790909 183.041921 
L 232.583523 178.478788 
L 233.376136 178.340757 
L 234.16875 186.509681 
L 234.961364 180.900651 
L 235.753977 167.117826 
L 236.546591 183.633003 
L 237.339205 183.177122 
L 238.131818 171.909814 
L 238.924432 182.707482 
L 239.717045 154.831149 
L 240.509659 142.698237 
L 241.302273 171.195611 
L 242.094886 178.332519 
L 242.8875 167.357753 
L 243.680114 178.529505 
L 244.472727 185.35604 
L 246.057955 161.472542 
L 246.850568 187.596114 
L 247.643182 180.686837 
L 248.435795 144.057726 
L 249.228409 182.295645 
L 250.021023 186.52026 
L 250.813636 192.086417 
L 251.60625 188.13679 
L 252.398864 188.700121 
L 253.191477 173.982466 
L 253.984091 177.171353 
L 254.776705 167.694485 
L 255.569318 183.080502 
L 256.361932 176.475044 
L 257.947159 187.047099 
L 258.739773 178.879301 
L 259.532386 162.985917 
L 260.325 178.659378 
L 261.117614 164.002843 
L 261.910227 184.91819 
L 262.702841 179.50583 
L 263.495455 223.471364 
L 264.288068 210.535339 
L 265.080682 214.477776 
L 265.873295 220.425356 
L 266.665909 190.269317 
L 267.458523 177.650592 
L 268.251136 168.072987 
L 269.04375 179.569971 
L 270.628977 169.018543 
L 271.421591 166.490785 
L 272.214205 176.682109 
L 273.006818 166.442238 
L 273.799432 166.326714 
L 274.592045 175.080459 
L 275.384659 171.369747 
L 276.177273 155.293932 
L 276.969886 179.240405 
L 277.7625 175.109193 
L 278.555114 155.77726 
L 279.347727 172.268979 
L 280.932955 165.384223 
L 281.725568 173.535242 
L 282.518182 178.95621 
L 283.310795 167.091053 
L 284.103409 165.907582 
L 284.896023 180.6422 
L 285.688636 176.942451 
L 286.48125 155.92928 
L 287.273864 171.602937 
L 288.066477 176.748922 
L 288.859091 148.666861 
L 289.651705 180.16716 
L 290.444318 175.856585 
L 291.236932 141.270069 
L 292.029545 162.669699 
L 292.822159 168.870461 
L 293.614773 165.202304 
L 294.407386 170.17286 
L 295.2 176.616626 
L 295.992614 168.035454 
L 296.785227 119.676985 
L 297.577841 159.958563 
L 298.370455 144.65601 
L 299.163068 149.357606 
L 299.955682 168.772999 
L 300.748295 170.032148 
L 301.540909 131.92302 
L 302.333523 174.913809 
L 303.126136 143.145716 
L 303.91875 139.052733 
L 304.711364 175.136331 
L 305.503977 161.143841 
L 306.296591 160.762515 
L 307.089205 171.425721 
L 307.881818 171.014054 
L 308.674432 154.16677 
L 309.467045 167.649623 
L 311.052273 179.835058 
L 311.844886 160.637047 
L 312.6375 172.899767 
L 313.430114 182.747535 
L 314.222727 150.652674 
L 315.015341 178.214889 
L 315.807955 175.801538 
L 316.600568 152.541733 
L 317.393182 168.462172 
L 318.185795 153.563447 
L 318.978409 143.10846 
L 319.771023 167.084377 
L 320.563636 165.61094 
L 321.35625 167.54789 
L 322.148864 159.328533 
L 323.734091 173.161383 
L 324.526705 158.847934 
L 325.319318 178.883397 
L 326.111932 179.481607 
L 326.904545 146.212711 
L 327.697159 171.512712 
L 329.282386 151.841635 
L 330.075 175.86503 
L 330.867614 164.821014 
L 331.660227 151.794696 
L 332.452841 174.211928 
L 334.038068 159.563768 
L 334.830682 165.251989 
L 335.623295 163.096661 
L 336.415909 167.251747 
L 337.208523 158.336014 
L 338.001136 151.019386 
L 338.79375 180.037608 
L 339.586364 148.735986 
L 340.378977 178.857124 
L 341.171591 172.183417 
L 341.964205 151.630523 
L 342.756818 173.450312 
L 343.549432 171.581001 
L 344.342045 161.090612 
L 345.134659 174.294641 
L 345.927273 169.356381 
L 346.719886 171.754532 
L 347.5125 172.247938 
L 348.305114 170.051224 
L 349.097727 168.72201 
L 349.890341 157.533447 
L 350.682955 174.753657 
L 351.475568 182.128412 
L 352.268182 153.012202 
L 353.060795 164.587347 
L 353.853409 174.153452 
L 354.646023 153.78997 
L 355.438636 176.214656 
L 356.23125 172.969784 
L 357.023864 172.324628 
L 357.816477 172.23817 
L 358.609091 168.91599 
L 359.401705 171.628896 
L 360.194318 168.241779 
L 360.986932 171.577468 
L 361.779545 179.03643 
L 362.572159 159.702091 
L 363.364773 168.744082 
L 364.157386 175.282765 
L 364.95 156.828253 
L 365.742614 176.248904 
L 366.535227 179.445564 
L 367.327841 149.335973 
L 368.120455 184.579511 
L 368.913068 189.712076 
L 369.705682 174.944158 
L 370.498295 199.225085 
L 371.290909 209.436754 
L 372.083523 175.643828 
L 372.876136 174.797068 
L 373.66875 163.869099 
L 374.461364 170.714254 
L 375.253977 163.154879 
L 376.046591 181.635987 
L 376.839205 182.527417 
L 377.631818 139.712924 
L 378.424432 173.047444 
L 379.217045 170.017801 
L 380.009659 165.293261 
L 380.802273 167.910676 
L 381.594886 128.104891 
L 382.3875 170.504147 
L 383.180114 167.68627 
L 383.972727 174.642973 
L 384.765341 174.456238 
L 385.557955 165.187883 
L 386.350568 174.759415 
L 387.143182 168.223603 
L 387.935795 134.68345 
L 388.728409 174.497697 
L 389.521023 174.299258 
L 390.313636 150.968399 
L 391.10625 169.126539 
L 391.898864 174.408249 
L 392.691477 156.926575 
L 393.484091 142.999253 
L 394.276705 162.923981 
L 395.069318 167.087523 
L 395.861932 173.319738 
L 396.654545 172.608136 
L 397.447159 177.542743 
L 398.239773 174.550222 
L 399.032386 178.183295 
L 399.825 179.027345 
L 400.617614 145.144372 
L 401.410227 173.954166 
L 402.202841 172.471652 
L 402.995455 158.10852 
L 403.788068 174.483521 
L 404.580682 164.816032 
L 405.373295 141.051357 
L 406.165909 167.335922 
L 406.958523 164.636352 
L 407.751136 170.159249 
L 408.54375 182.330545 
L 409.336364 167.68248 
L 410.128977 166.891433 
L 410.921591 165.43581 
L 411.714205 166.910229 
L 412.506818 173.864012 
L 413.299432 168.764263 
L 414.092045 184.195634 
L 414.884659 178.986209 
L 415.677273 160.132763 
L 416.469886 177.956499 
L 417.2625 174.81561 
L 418.055114 156.620222 
L 418.847727 178.686271 
L 419.640341 129.456089 
L 420.432955 167.978511 
L 421.225568 176.297529 
L 422.018182 188.304092 
L 422.810795 175.023237 
L 423.603409 184.454037 
L 424.396023 181.875992 
L 425.188636 173.724162 
L 425.98125 138.293075 
L 426.773864 176.859784 
L 427.566477 166.020509 
L 428.359091 136.621905 
L 429.151705 174.505546 
L 429.944318 174.354469 
L 430.736932 158.642244 
L 431.529545 175.74186 
L 432.322159 168.171084 
L 433.114773 162.866517 
L 433.907386 177.005366 
L 434.7 161.962935 
L 435.492614 173.969866 
L 436.285227 167.754643 
L 437.077841 175.692144 
L 437.870455 168.244642 
L 438.663068 152.40145 
L 439.455682 161.273646 
L 440.248295 178.738899 
L 441.040909 156.717908 
L 441.833523 176.079867 
L 442.626136 156.186028 
L 443.41875 173.233344 
L 444.211364 181.457917 
L 445.003977 187.23098 
L 445.796591 173.764724 
L 446.589205 177.139744 
L 447.381818 191.073292 
L 448.174432 192.400856 
L 448.967045 137.818868 
L 449.759659 176.753801 
L 450.552273 197.281946 
L 451.344886 205.02799 
L 452.1375 179.19451 
L 452.930114 177.672526 
L 453.722727 144.795171 
L 454.515341 183.298918 
L 455.307955 191.478466 
L 456.100568 160.860809 
L 456.893182 173.243232 
L 457.685795 179.640612 
L 458.478409 190.080199 
L 459.271023 181.668178 
L 460.063636 181.750179 
L 460.85625 174.248445 
L 461.648864 162.223398 
L 462.441477 173.061105 
L 463.234091 197.237637 
L 464.026705 180.117697 
L 464.819318 170.381925 
L 465.611932 172.316613 
L 466.404545 158.274297 
L 467.197159 162.502753 
L 467.989773 175.676359 
L 468.782386 158.096661 
L 469.575 186.160741 
L 470.367614 158.87169 
L 471.160227 165.293017 
L 471.952841 175.241339 
L 472.745455 168.486231 
L 473.538068 174.372316 
L 474.330682 172.895873 
L 475.123295 174.21935 
L 475.915909 154.422465 
L 476.708523 171.284008 
L 477.501136 179.61081 
L 478.29375 138.385414 
L 479.086364 147.644368 
L 479.878977 169.663924 
L 480.671591 178.8463 
L 481.464205 162.250985 
L 482.256818 143.204285 
L 483.049432 112.39317 
L 483.842045 161.878978 
L 484.634659 166.671321 
L 485.427273 169.368891 
L 486.219886 155.478491 
L 487.0125 164.703409 
L 487.805114 169.990661 
L 488.597727 171.118806 
L 489.390341 168.5991 
L 490.182955 179.181335 
L 490.975568 173.968107 
L 491.768182 139.590413 
L 492.560795 171.780457 
L 493.353409 174.569769 
L 494.146023 143.501466 
L 494.938636 176.488084 
L 495.73125 168.565051 
L 496.523864 167.968008 
L 497.316477 178.670973 
L 498.109091 156.482619 
L 498.109091 156.482619 
" style="fill:none;stroke:#1f77b4;stroke-linecap:square;stroke-width:1.5;"/>
   </g>
   <g id="patch_3">
    <path d="M 72 256.32 
L 72 34.56 
" style="fill:none;stroke:#000000;stroke-linecap:square;stroke-linejoin:miter;stroke-width:0.8;"/>
   </g>
   <g id="patch_4">
    <path d="M 518.4 256.32 
L 518.4 34.56 
" style="fill:none;stroke:#000000;stroke-linecap:square;stroke-linejoin:miter;stroke-width:0.8;"/>
   </g>
   <g id="patch_5">
    <path d="M 72 256.32 
L 518.4 256.32 
" style="fill:none;stroke:#000000;stroke-linecap:square;stroke-linejoin:miter;stroke-width:0.8;"/>
   </g>
   <g id="patch_6">
    <path d="M 72 34.56 
L 518.4 34.56 
" style="fill:none;stroke:#000000;stroke-linecap:square;stroke-linejoin:miter;stroke-width:0.8;"/>
   </g>
   <g id="text_18">
    <!-- Frek. char. filtru s Hamming window -->
    <g transform="translate(187.528125 28.56)scale(0.12 -0.12)">
     <defs>
      <path d="M 684 794 
L 1344 794 
L 1344 0 
L 684 0 
L 684 794 
z
" id="DejaVuSans-2e" transform="scale(0.015625)"/>
      <path d="M 3513 2113 
L 3513 0 
L 2938 0 
L 2938 2094 
Q 2938 2591 2744 2837 
Q 2550 3084 2163 3084 
Q 1697 3084 1428 2787 
Q 1159 2491 1159 1978 
L 1159 0 
L 581 0 
L 581 4863 
L 1159 4863 
L 1159 2956 
Q 1366 3272 1645 3428 
Q 1925 3584 2291 3584 
Q 2894 3584 3203 3211 
Q 3513 2838 3513 2113 
z
" id="DejaVuSans-68" transform="scale(0.015625)"/>
      <path d="M 2194 1759 
Q 1497 1759 1228 1600 
Q 959 1441 959 1056 
Q 959 750 1161 570 
Q 1363 391 1709 391 
Q 2188 391 2477 730 
Q 2766 1069 2766 1631 
L 2766 1759 
L 2194 1759 
z
M 3341 1997 
L 3341 0 
L 2766 0 
L 2766 531 
Q 2569 213 2275 61 
Q 1981 -91 1556 -91 
Q 1019 -91 701 211 
Q 384 513 384 1019 
Q 384 1609 779 1909 
Q 1175 2209 1959 2209 
L 2766 2209 
L 2766 2266 
Q 2766 2663 2505 2880 
Q 2244 3097 1772 3097 
Q 1472 3097 1187 3025 
Q 903 2953 641 2809 
L 641 3341 
Q 956 3463 1253 3523 
Q 1550 3584 1831 3584 
Q 2591 3584 2966 3190 
Q 3341 2797 3341 1997 
z
" id="DejaVuSans-61" transform="scale(0.015625)"/>
      <path d="M 2375 4863 
L 2375 4384 
L 1825 4384 
Q 1516 4384 1395 4259 
Q 1275 4134 1275 3809 
L 1275 3500 
L 2222 3500 
L 2222 3053 
L 1275 3053 
L 1275 0 
L 697 0 
L 697 3053 
L 147 3053 
L 147 3500 
L 697 3500 
L 697 3744 
Q 697 4328 969 4595 
Q 1241 4863 1831 4863 
L 2375 4863 
z
" id="DejaVuSans-66" transform="scale(0.015625)"/>
      <path d="M 544 1381 
L 544 3500 
L 1119 3500 
L 1119 1403 
Q 1119 906 1312 657 
Q 1506 409 1894 409 
Q 2359 409 2629 706 
Q 2900 1003 2900 1516 
L 2900 3500 
L 3475 3500 
L 3475 0 
L 2900 0 
L 2900 538 
Q 2691 219 2414 64 
Q 2138 -91 1772 -91 
Q 1169 -91 856 284 
Q 544 659 544 1381 
z
M 1991 3584 
L 1991 3584 
z
" id="DejaVuSans-75" transform="scale(0.015625)"/>
      <path d="M 3328 2828 
Q 3544 3216 3844 3400 
Q 4144 3584 4550 3584 
Q 5097 3584 5394 3201 
Q 5691 2819 5691 2113 
L 5691 0 
L 5113 0 
L 5113 2094 
Q 5113 2597 4934 2840 
Q 4756 3084 4391 3084 
Q 3944 3084 3684 2787 
Q 3425 2491 3425 1978 
L 3425 0 
L 2847 0 
L 2847 2094 
Q 2847 2600 2669 2842 
Q 2491 3084 2119 3084 
Q 1678 3084 1418 2786 
Q 1159 2488 1159 1978 
L 1159 0 
L 581 0 
L 581 3500 
L 1159 3500 
L 1159 2956 
Q 1356 3278 1631 3431 
Q 1906 3584 2284 3584 
Q 2666 3584 2933 3390 
Q 3200 3197 3328 2828 
z
" id="DejaVuSans-6d" transform="scale(0.015625)"/>
      <path d="M 2906 1791 
Q 2906 2416 2648 2759 
Q 2391 3103 1925 3103 
Q 1463 3103 1205 2759 
Q 947 2416 947 1791 
Q 947 1169 1205 825 
Q 1463 481 1925 481 
Q 2391 481 2648 825 
Q 2906 1169 2906 1791 
z
M 3481 434 
Q 3481 -459 3084 -895 
Q 2688 -1331 1869 -1331 
Q 1566 -1331 1297 -1286 
Q 1028 -1241 775 -1147 
L 775 -588 
Q 1028 -725 1275 -790 
Q 1522 -856 1778 -856 
Q 2344 -856 2625 -561 
Q 2906 -266 2906 331 
L 2906 616 
Q 2728 306 2450 153 
Q 2172 0 1784 0 
Q 1141 0 747 490 
Q 353 981 353 1791 
Q 353 2603 747 3093 
Q 1141 3584 1784 3584 
Q 2172 3584 2450 3431 
Q 2728 3278 2906 2969 
L 2906 3500 
L 3481 3500 
L 3481 434 
z
" id="DejaVuSans-67" transform="scale(0.015625)"/>
      <path d="M 269 3500 
L 844 3500 
L 1563 769 
L 2278 3500 
L 2956 3500 
L 3675 769 
L 4391 3500 
L 4966 3500 
L 4050 0 
L 3372 0 
L 2619 2869 
L 1863 0 
L 1184 0 
L 269 3500 
z
" id="DejaVuSans-77" transform="scale(0.015625)"/>
     </defs>
     <use xlink:href="#DejaVuSans-46"/>
     <use x="50.269531" xlink:href="#DejaVuSans-72"/>
     <use x="89.132812" xlink:href="#DejaVuSans-65"/>
     <use x="150.65625" xlink:href="#DejaVuSans-6b"/>
     <use x="208.566406" xlink:href="#DejaVuSans-2e"/>
     <use x="240.353516" xlink:href="#DejaVuSans-20"/>
     <use x="272.140625" xlink:href="#DejaVuSans-63"/>
     <use x="327.121094" xlink:href="#DejaVuSans-68"/>
     <use x="390.5" xlink:href="#DejaVuSans-61"/>
     <use x="451.779297" xlink:href="#DejaVuSans-72"/>
     <use x="483.767578" xlink:href="#DejaVuSans-2e"/>
     <use x="515.554688" xlink:href="#DejaVuSans-20"/>
     <use x="547.341797" xlink:href="#DejaVuSans-66"/>
     <use x="582.546875" xlink:href="#DejaVuSans-69"/>
     <use x="610.330078" xlink:href="#DejaVuSans-6c"/>
     <use x="638.113281" xlink:href="#DejaVuSans-74"/>
     <use x="677.322266" xlink:href="#DejaVuSans-72"/>
     <use x="718.435547" xlink:href="#DejaVuSans-75"/>
     <use x="781.814453" xlink:href="#DejaVuSans-20"/>
     <use x="813.601562" xlink:href="#DejaVuSans-73"/>
     <use x="865.701172" xlink:href="#DejaVuSans-20"/>
     <use x="897.488281" xlink:href="#DejaVuSans-48"/>
     <use x="972.683594" xlink:href="#DejaVuSans-61"/>
     <use x="1033.962891" xlink:href="#DejaVuSans-6d"/>
     <use x="1131.375" xlink:href="#DejaVuSans-6d"/>
     <use x="1228.787109" xlink:href="#DejaVuSans-69"/>
     <use x="1256.570312" xlink:href="#DejaVuSans-6e"/>
     <use x="1319.949219" xlink:href="#DejaVuSans-67"/>
     <use x="1383.425781" xlink:href="#DejaVuSans-20"/>
     <use x="1415.212891" xlink:href="#DejaVuSans-77"/>
     <use x="1497" xlink:href="#DejaVuSans-69"/>
     <use x="1524.783203" xlink:href="#DejaVuSans-6e"/>
     <use x="1588.162109" xlink:href="#DejaVuSans-64"/>
     <use x="1651.638672" xlink:href="#DejaVuSans-6f"/>
     <use x="1712.820312" xlink:href="#DejaVuSans-77"/>
    </g>
   </g>
  </g>
 </g>
 <defs>
  <clipPath id="pfb4651185e">
   <rect height="221.76" width="446.4" x="72" y="34.56"/>
  </clipPath>
 </defs>
</svg>
