<?xml version="1.0" encoding="utf-8" standalone="no"?>
<!DOCTYPE svg PUBLIC "-//W3C//DTD SVG 1.1//EN"
  "http://www.w3.org/Graphics/SVG/1.1/DTD/svg11.dtd">
<svg height="288pt" version="1.1" viewBox="0 0 576 288" width="576pt" xmlns="http://www.w3.org/2000/svg" xmlns:xlink="http://www.w3.org/1999/xlink">
 <metadata>
  <rdf:RDF xmlns:cc="http://creativecommons.org/ns#" xmlns:dc="http://purl.org/dc/elements/1.1/" xmlns:rdf="http://www.w3.org/1999/02/22-rdf-syntax-ns#">
   <cc:Work>
    <dc:type rdf:resource="http://purl.org/dc/dcmitype/StillImage"/>
    <dc:date>2021-09-09T14:47:40.520108</dc:date>
    <dc:format>image/svg+xml</dc:format>
    <dc:creator>
     <cc:Agent>
      <dc:title>Matplotlib v3.4.3, https://matplotlib.org/</dc:title>
     </cc:Agent>
    </dc:creator>
   </cc:Work>
  </rdf:RDF>
 </metadata>
 <defs>
  <style type="text/css">*{stroke-linecap:butt;stroke-linejoin:round;}</style>
 </defs>
 <g id="figure_1">
  <g id="patch_1">
   <path d="M 0 288 
L 576 288 
L 576 0 
L 0 0 
z
" style="fill:#ffffff;"/>
  </g>
  <g id="axes_1">
   <g id="patch_2">
    <path d="M 72 256.32 
L 518.4 256.32 
L 518.4 34.56 
L 72 34.56 
z
" style="fill:#ffffff;"/>
   </g>
   <g id="matplotlib.axis_1">
    <g id="xtick_1">
     <g id="line2d_1">
      <defs>
       <path d="M 0 0 
L 0 3.5 
" id="m0b585b4575" style="stroke:#000000;stroke-width:0.8;"/>
      </defs>
      <g>
       <use style="stroke:#000000;stroke-width:0.8;" x="92.290909" xlink:href="#m0b585b4575" y="256.32"/>
      </g>
     </g>
     <g id="text_1">
      <!-- 0 -->
      <g transform="translate(89.109659 270.918437)scale(0.1 -0.1)">
       <defs>
        <path d="M 2034 4250 
Q 1547 4250 1301 3770 
Q 1056 3291 1056 2328 
Q 1056 1369 1301 889 
Q 1547 409 2034 409 
Q 2525 409 2770 889 
Q 3016 1369 3016 2328 
Q 3016 3291 2770 3770 
Q 2525 4250 2034 4250 
z
M 2034 4750 
Q 2819 4750 3233 4129 
Q 3647 3509 3647 2328 
Q 3647 1150 3233 529 
Q 2819 -91 2034 -91 
Q 1250 -91 836 529 
Q 422 1150 422 2328 
Q 422 3509 836 4129 
Q 1250 4750 2034 4750 
z
" id="DejaVuSans-30" transform="scale(0.015625)"/>
       </defs>
       <use xlink:href="#DejaVuSans-30"/>
      </g>
     </g>
    </g>
    <g id="xtick_2">
     <g id="line2d_2">
      <g>
       <use style="stroke:#000000;stroke-width:0.8;" x="143.117259" xlink:href="#m0b585b4575" y="256.32"/>
      </g>
     </g>
     <g id="text_2">
      <!-- 1000 -->
      <g transform="translate(130.392259 270.918437)scale(0.1 -0.1)">
       <defs>
        <path d="M 794 531 
L 1825 531 
L 1825 4091 
L 703 3866 
L 703 4441 
L 1819 4666 
L 2450 4666 
L 2450 531 
L 3481 531 
L 3481 0 
L 794 0 
L 794 531 
z
" id="DejaVuSans-31" transform="scale(0.015625)"/>
       </defs>
       <use xlink:href="#DejaVuSans-31"/>
       <use x="63.623047" xlink:href="#DejaVuSans-30"/>
       <use x="127.246094" xlink:href="#DejaVuSans-30"/>
       <use x="190.869141" xlink:href="#DejaVuSans-30"/>
      </g>
     </g>
    </g>
    <g id="xtick_3">
     <g id="line2d_3">
      <g>
       <use style="stroke:#000000;stroke-width:0.8;" x="193.943608" xlink:href="#m0b585b4575" y="256.32"/>
      </g>
     </g>
     <g id="text_3">
      <!-- 2000 -->
      <g transform="translate(181.218608 270.918437)scale(0.1 -0.1)">
       <defs>
        <path d="M 1228 531 
L 3431 531 
L 3431 0 
L 469 0 
L 469 531 
Q 828 903 1448 1529 
Q 2069 2156 2228 2338 
Q 2531 2678 2651 2914 
Q 2772 3150 2772 3378 
Q 2772 3750 2511 3984 
Q 2250 4219 1831 4219 
Q 1534 4219 1204 4116 
Q 875 4013 500 3803 
L 500 4441 
Q 881 4594 1212 4672 
Q 1544 4750 1819 4750 
Q 2544 4750 2975 4387 
Q 3406 4025 3406 3419 
Q 3406 3131 3298 2873 
Q 3191 2616 2906 2266 
Q 2828 2175 2409 1742 
Q 1991 1309 1228 531 
z
" id="DejaVuSans-32" transform="scale(0.015625)"/>
       </defs>
       <use xlink:href="#DejaVuSans-32"/>
       <use x="63.623047" xlink:href="#DejaVuSans-30"/>
       <use x="127.246094" xlink:href="#DejaVuSans-30"/>
       <use x="190.869141" xlink:href="#DejaVuSans-30"/>
      </g>
     </g>
    </g>
    <g id="xtick_4">
     <g id="line2d_4">
      <g>
       <use style="stroke:#000000;stroke-width:0.8;" x="244.769957" xlink:href="#m0b585b4575" y="256.32"/>
      </g>
     </g>
     <g id="text_4">
      <!-- 3000 -->
      <g transform="translate(232.044957 270.918437)scale(0.1 -0.1)">
       <defs>
        <path d="M 2597 2516 
Q 3050 2419 3304 2112 
Q 3559 1806 3559 1356 
Q 3559 666 3084 287 
Q 2609 -91 1734 -91 
Q 1441 -91 1130 -33 
Q 819 25 488 141 
L 488 750 
Q 750 597 1062 519 
Q 1375 441 1716 441 
Q 2309 441 2620 675 
Q 2931 909 2931 1356 
Q 2931 1769 2642 2001 
Q 2353 2234 1838 2234 
L 1294 2234 
L 1294 2753 
L 1863 2753 
Q 2328 2753 2575 2939 
Q 2822 3125 2822 3475 
Q 2822 3834 2567 4026 
Q 2313 4219 1838 4219 
Q 1578 4219 1281 4162 
Q 984 4106 628 3988 
L 628 4550 
Q 988 4650 1302 4700 
Q 1616 4750 1894 4750 
Q 2613 4750 3031 4423 
Q 3450 4097 3450 3541 
Q 3450 3153 3228 2886 
Q 3006 2619 2597 2516 
z
" id="DejaVuSans-33" transform="scale(0.015625)"/>
       </defs>
       <use xlink:href="#DejaVuSans-33"/>
       <use x="63.623047" xlink:href="#DejaVuSans-30"/>
       <use x="127.246094" xlink:href="#DejaVuSans-30"/>
       <use x="190.869141" xlink:href="#DejaVuSans-30"/>
      </g>
     </g>
    </g>
    <g id="xtick_5">
     <g id="line2d_5">
      <g>
       <use style="stroke:#000000;stroke-width:0.8;" x="295.596307" xlink:href="#m0b585b4575" y="256.32"/>
      </g>
     </g>
     <g id="text_5">
      <!-- 4000 -->
      <g transform="translate(282.871307 270.918437)scale(0.1 -0.1)">
       <defs>
        <path d="M 2419 4116 
L 825 1625 
L 2419 1625 
L 2419 4116 
z
M 2253 4666 
L 3047 4666 
L 3047 1625 
L 3713 1625 
L 3713 1100 
L 3047 1100 
L 3047 0 
L 2419 0 
L 2419 1100 
L 313 1100 
L 313 1709 
L 2253 4666 
z
" id="DejaVuSans-34" transform="scale(0.015625)"/>
       </defs>
       <use xlink:href="#DejaVuSans-34"/>
       <use x="63.623047" xlink:href="#DejaVuSans-30"/>
       <use x="127.246094" xlink:href="#DejaVuSans-30"/>
       <use x="190.869141" xlink:href="#DejaVuSans-30"/>
      </g>
     </g>
    </g>
    <g id="xtick_6">
     <g id="line2d_6">
      <g>
       <use style="stroke:#000000;stroke-width:0.8;" x="346.422656" xlink:href="#m0b585b4575" y="256.32"/>
      </g>
     </g>
     <g id="text_6">
      <!-- 5000 -->
      <g transform="translate(333.697656 270.918437)scale(0.1 -0.1)">
       <defs>
        <path d="M 691 4666 
L 3169 4666 
L 3169 4134 
L 1269 4134 
L 1269 2991 
Q 1406 3038 1543 3061 
Q 1681 3084 1819 3084 
Q 2600 3084 3056 2656 
Q 3513 2228 3513 1497 
Q 3513 744 3044 326 
Q 2575 -91 1722 -91 
Q 1428 -91 1123 -41 
Q 819 9 494 109 
L 494 744 
Q 775 591 1075 516 
Q 1375 441 1709 441 
Q 2250 441 2565 725 
Q 2881 1009 2881 1497 
Q 2881 1984 2565 2268 
Q 2250 2553 1709 2553 
Q 1456 2553 1204 2497 
Q 953 2441 691 2322 
L 691 4666 
z
" id="DejaVuSans-35" transform="scale(0.015625)"/>
       </defs>
       <use xlink:href="#DejaVuSans-35"/>
       <use x="63.623047" xlink:href="#DejaVuSans-30"/>
       <use x="127.246094" xlink:href="#DejaVuSans-30"/>
       <use x="190.869141" xlink:href="#DejaVuSans-30"/>
      </g>
     </g>
    </g>
    <g id="xtick_7">
     <g id="line2d_7">
      <g>
       <use style="stroke:#000000;stroke-width:0.8;" x="397.249006" xlink:href="#m0b585b4575" y="256.32"/>
      </g>
     </g>
     <g id="text_7">
      <!-- 6000 -->
      <g transform="translate(384.524006 270.918437)scale(0.1 -0.1)">
       <defs>
        <path d="M 2113 2584 
Q 1688 2584 1439 2293 
Q 1191 2003 1191 1497 
Q 1191 994 1439 701 
Q 1688 409 2113 409 
Q 2538 409 2786 701 
Q 3034 994 3034 1497 
Q 3034 2003 2786 2293 
Q 2538 2584 2113 2584 
z
M 3366 4563 
L 3366 3988 
Q 3128 4100 2886 4159 
Q 2644 4219 2406 4219 
Q 1781 4219 1451 3797 
Q 1122 3375 1075 2522 
Q 1259 2794 1537 2939 
Q 1816 3084 2150 3084 
Q 2853 3084 3261 2657 
Q 3669 2231 3669 1497 
Q 3669 778 3244 343 
Q 2819 -91 2113 -91 
Q 1303 -91 875 529 
Q 447 1150 447 2328 
Q 447 3434 972 4092 
Q 1497 4750 2381 4750 
Q 2619 4750 2861 4703 
Q 3103 4656 3366 4563 
z
" id="DejaVuSans-36" transform="scale(0.015625)"/>
       </defs>
       <use xlink:href="#DejaVuSans-36"/>
       <use x="63.623047" xlink:href="#DejaVuSans-30"/>
       <use x="127.246094" xlink:href="#DejaVuSans-30"/>
       <use x="190.869141" xlink:href="#DejaVuSans-30"/>
      </g>
     </g>
    </g>
    <g id="xtick_8">
     <g id="line2d_8">
      <g>
       <use style="stroke:#000000;stroke-width:0.8;" x="448.075355" xlink:href="#m0b585b4575" y="256.32"/>
      </g>
     </g>
     <g id="text_8">
      <!-- 7000 -->
      <g transform="translate(435.350355 270.918437)scale(0.1 -0.1)">
       <defs>
        <path d="M 525 4666 
L 3525 4666 
L 3525 4397 
L 1831 0 
L 1172 0 
L 2766 4134 
L 525 4134 
L 525 4666 
z
" id="DejaVuSans-37" transform="scale(0.015625)"/>
       </defs>
       <use xlink:href="#DejaVuSans-37"/>
       <use x="63.623047" xlink:href="#DejaVuSans-30"/>
       <use x="127.246094" xlink:href="#DejaVuSans-30"/>
       <use x="190.869141" xlink:href="#DejaVuSans-30"/>
      </g>
     </g>
    </g>
    <g id="xtick_9">
     <g id="line2d_9">
      <g>
       <use style="stroke:#000000;stroke-width:0.8;" x="498.901705" xlink:href="#m0b585b4575" y="256.32"/>
      </g>
     </g>
     <g id="text_9">
      <!-- 8000 -->
      <g transform="translate(486.176705 270.918437)scale(0.1 -0.1)">
       <defs>
        <path d="M 2034 2216 
Q 1584 2216 1326 1975 
Q 1069 1734 1069 1313 
Q 1069 891 1326 650 
Q 1584 409 2034 409 
Q 2484 409 2743 651 
Q 3003 894 3003 1313 
Q 3003 1734 2745 1975 
Q 2488 2216 2034 2216 
z
M 1403 2484 
Q 997 2584 770 2862 
Q 544 3141 544 3541 
Q 544 4100 942 4425 
Q 1341 4750 2034 4750 
Q 2731 4750 3128 4425 
Q 3525 4100 3525 3541 
Q 3525 3141 3298 2862 
Q 3072 2584 2669 2484 
Q 3125 2378 3379 2068 
Q 3634 1759 3634 1313 
Q 3634 634 3220 271 
Q 2806 -91 2034 -91 
Q 1263 -91 848 271 
Q 434 634 434 1313 
Q 434 1759 690 2068 
Q 947 2378 1403 2484 
z
M 1172 3481 
Q 1172 3119 1398 2916 
Q 1625 2713 2034 2713 
Q 2441 2713 2670 2916 
Q 2900 3119 2900 3481 
Q 2900 3844 2670 4047 
Q 2441 4250 2034 4250 
Q 1625 4250 1398 4047 
Q 1172 3844 1172 3481 
z
" id="DejaVuSans-38" transform="scale(0.015625)"/>
       </defs>
       <use xlink:href="#DejaVuSans-38"/>
       <use x="63.623047" xlink:href="#DejaVuSans-30"/>
       <use x="127.246094" xlink:href="#DejaVuSans-30"/>
       <use x="190.869141" xlink:href="#DejaVuSans-30"/>
      </g>
     </g>
    </g>
    <g id="text_10">
     <!-- frekvence [Hz] -->
     <g transform="translate(258.619531 284.596563)scale(0.1 -0.1)">
      <defs>
       <path d="M 2375 4863 
L 2375 4384 
L 1825 4384 
Q 1516 4384 1395 4259 
Q 1275 4134 1275 3809 
L 1275 3500 
L 2222 3500 
L 2222 3053 
L 1275 3053 
L 1275 0 
L 697 0 
L 697 3053 
L 147 3053 
L 147 3500 
L 697 3500 
L 697 3744 
Q 697 4328 969 4595 
Q 1241 4863 1831 4863 
L 2375 4863 
z
" id="DejaVuSans-66" transform="scale(0.015625)"/>
       <path d="M 2631 2963 
Q 2534 3019 2420 3045 
Q 2306 3072 2169 3072 
Q 1681 3072 1420 2755 
Q 1159 2438 1159 1844 
L 1159 0 
L 581 0 
L 581 3500 
L 1159 3500 
L 1159 2956 
Q 1341 3275 1631 3429 
Q 1922 3584 2338 3584 
Q 2397 3584 2469 3576 
Q 2541 3569 2628 3553 
L 2631 2963 
z
" id="DejaVuSans-72" transform="scale(0.015625)"/>
       <path d="M 3597 1894 
L 3597 1613 
L 953 1613 
Q 991 1019 1311 708 
Q 1631 397 2203 397 
Q 2534 397 2845 478 
Q 3156 559 3463 722 
L 3463 178 
Q 3153 47 2828 -22 
Q 2503 -91 2169 -91 
Q 1331 -91 842 396 
Q 353 884 353 1716 
Q 353 2575 817 3079 
Q 1281 3584 2069 3584 
Q 2775 3584 3186 3129 
Q 3597 2675 3597 1894 
z
M 3022 2063 
Q 3016 2534 2758 2815 
Q 2500 3097 2075 3097 
Q 1594 3097 1305 2825 
Q 1016 2553 972 2059 
L 3022 2063 
z
" id="DejaVuSans-65" transform="scale(0.015625)"/>
       <path d="M 581 4863 
L 1159 4863 
L 1159 1991 
L 2875 3500 
L 3609 3500 
L 1753 1863 
L 3688 0 
L 2938 0 
L 1159 1709 
L 1159 0 
L 581 0 
L 581 4863 
z
" id="DejaVuSans-6b" transform="scale(0.015625)"/>
       <path d="M 191 3500 
L 800 3500 
L 1894 563 
L 2988 3500 
L 3597 3500 
L 2284 0 
L 1503 0 
L 191 3500 
z
" id="DejaVuSans-76" transform="scale(0.015625)"/>
       <path d="M 3513 2113 
L 3513 0 
L 2938 0 
L 2938 2094 
Q 2938 2591 2744 2837 
Q 2550 3084 2163 3084 
Q 1697 3084 1428 2787 
Q 1159 2491 1159 1978 
L 1159 0 
L 581 0 
L 581 3500 
L 1159 3500 
L 1159 2956 
Q 1366 3272 1645 3428 
Q 1925 3584 2291 3584 
Q 2894 3584 3203 3211 
Q 3513 2838 3513 2113 
z
" id="DejaVuSans-6e" transform="scale(0.015625)"/>
       <path d="M 3122 3366 
L 3122 2828 
Q 2878 2963 2633 3030 
Q 2388 3097 2138 3097 
Q 1578 3097 1268 2742 
Q 959 2388 959 1747 
Q 959 1106 1268 751 
Q 1578 397 2138 397 
Q 2388 397 2633 464 
Q 2878 531 3122 666 
L 3122 134 
Q 2881 22 2623 -34 
Q 2366 -91 2075 -91 
Q 1284 -91 818 406 
Q 353 903 353 1747 
Q 353 2603 823 3093 
Q 1294 3584 2113 3584 
Q 2378 3584 2631 3529 
Q 2884 3475 3122 3366 
z
" id="DejaVuSans-63" transform="scale(0.015625)"/>
       <path id="DejaVuSans-20" transform="scale(0.015625)"/>
       <path d="M 550 4863 
L 1875 4863 
L 1875 4416 
L 1125 4416 
L 1125 -397 
L 1875 -397 
L 1875 -844 
L 550 -844 
L 550 4863 
z
" id="DejaVuSans-5b" transform="scale(0.015625)"/>
       <path d="M 628 4666 
L 1259 4666 
L 1259 2753 
L 3553 2753 
L 3553 4666 
L 4184 4666 
L 4184 0 
L 3553 0 
L 3553 2222 
L 1259 2222 
L 1259 0 
L 628 0 
L 628 4666 
z
" id="DejaVuSans-48" transform="scale(0.015625)"/>
       <path d="M 353 3500 
L 3084 3500 
L 3084 2975 
L 922 459 
L 3084 459 
L 3084 0 
L 275 0 
L 275 525 
L 2438 3041 
L 353 3041 
L 353 3500 
z
" id="DejaVuSans-7a" transform="scale(0.015625)"/>
       <path d="M 1947 4863 
L 1947 -844 
L 622 -844 
L 622 -397 
L 1369 -397 
L 1369 4416 
L 622 4416 
L 622 4863 
L 1947 4863 
z
" id="DejaVuSans-5d" transform="scale(0.015625)"/>
      </defs>
      <use xlink:href="#DejaVuSans-66"/>
      <use x="35.205078" xlink:href="#DejaVuSans-72"/>
      <use x="74.068359" xlink:href="#DejaVuSans-65"/>
      <use x="135.591797" xlink:href="#DejaVuSans-6b"/>
      <use x="193.501953" xlink:href="#DejaVuSans-76"/>
      <use x="252.681641" xlink:href="#DejaVuSans-65"/>
      <use x="314.205078" xlink:href="#DejaVuSans-6e"/>
      <use x="377.583984" xlink:href="#DejaVuSans-63"/>
      <use x="432.564453" xlink:href="#DejaVuSans-65"/>
      <use x="494.087891" xlink:href="#DejaVuSans-20"/>
      <use x="525.875" xlink:href="#DejaVuSans-5b"/>
      <use x="564.888672" xlink:href="#DejaVuSans-48"/>
      <use x="640.083984" xlink:href="#DejaVuSans-7a"/>
      <use x="692.574219" xlink:href="#DejaVuSans-5d"/>
     </g>
    </g>
   </g>
   <g id="matplotlib.axis_2">
    <g id="ytick_1">
     <g id="line2d_10">
      <defs>
       <path d="M 0 0 
L -3.5 0 
" id="m8b4eeaed82" style="stroke:#000000;stroke-width:0.8;"/>
      </defs>
      <g>
       <use style="stroke:#000000;stroke-width:0.8;" x="72" xlink:href="#m8b4eeaed82" y="238.984819"/>
      </g>
     </g>
     <g id="text_11">
      <!-- −5 -->
      <g transform="translate(50.257812 242.784037)scale(0.1 -0.1)">
       <defs>
        <path d="M 678 2272 
L 4684 2272 
L 4684 1741 
L 678 1741 
L 678 2272 
z
" id="DejaVuSans-2212" transform="scale(0.015625)"/>
       </defs>
       <use xlink:href="#DejaVuSans-2212"/>
       <use x="83.789062" xlink:href="#DejaVuSans-35"/>
      </g>
     </g>
    </g>
    <g id="ytick_2">
     <g id="line2d_11">
      <g>
       <use style="stroke:#000000;stroke-width:0.8;" x="72" xlink:href="#m8b4eeaed82" y="199.730197"/>
      </g>
     </g>
     <g id="text_12">
      <!-- 0 -->
      <g transform="translate(58.6375 203.529416)scale(0.1 -0.1)">
       <use xlink:href="#DejaVuSans-30"/>
      </g>
     </g>
    </g>
    <g id="ytick_3">
     <g id="line2d_12">
      <g>
       <use style="stroke:#000000;stroke-width:0.8;" x="72" xlink:href="#m8b4eeaed82" y="160.475576"/>
      </g>
     </g>
     <g id="text_13">
      <!-- 5 -->
      <g transform="translate(58.6375 164.274795)scale(0.1 -0.1)">
       <use xlink:href="#DejaVuSans-35"/>
      </g>
     </g>
    </g>
    <g id="ytick_4">
     <g id="line2d_13">
      <g>
       <use style="stroke:#000000;stroke-width:0.8;" x="72" xlink:href="#m8b4eeaed82" y="121.220955"/>
      </g>
     </g>
     <g id="text_14">
      <!-- 10 -->
      <g transform="translate(52.275 125.020174)scale(0.1 -0.1)">
       <use xlink:href="#DejaVuSans-31"/>
       <use x="63.623047" xlink:href="#DejaVuSans-30"/>
      </g>
     </g>
    </g>
    <g id="ytick_5">
     <g id="line2d_14">
      <g>
       <use style="stroke:#000000;stroke-width:0.8;" x="72" xlink:href="#m8b4eeaed82" y="81.966334"/>
      </g>
     </g>
     <g id="text_15">
      <!-- 15 -->
      <g transform="translate(52.275 85.765553)scale(0.1 -0.1)">
       <use xlink:href="#DejaVuSans-31"/>
       <use x="63.623047" xlink:href="#DejaVuSans-35"/>
      </g>
     </g>
    </g>
    <g id="ytick_6">
     <g id="line2d_15">
      <g>
       <use style="stroke:#000000;stroke-width:0.8;" x="72" xlink:href="#m8b4eeaed82" y="42.711713"/>
      </g>
     </g>
     <g id="text_16">
      <!-- 20 -->
      <g transform="translate(52.275 46.510931)scale(0.1 -0.1)">
       <use xlink:href="#DejaVuSans-32"/>
       <use x="63.623047" xlink:href="#DejaVuSans-30"/>
      </g>
     </g>
    </g>
   </g>
   <g id="line2d_16">
    <path clip-path="url(#pb0dcaead43)" d="M 92.290909 44.64 
L 93.083523 174.191751 
L 93.876136 171.383141 
L 94.66875 164.38263 
L 95.461364 172.264122 
L 96.253977 175.531263 
L 97.046591 174.127746 
L 97.839205 162.527204 
L 98.631818 179.093338 
L 99.424432 180.588918 
L 100.217045 147.428625 
L 101.009659 179.274132 
L 101.802273 181.724165 
L 102.594886 179.006957 
L 103.3875 180.175421 
L 104.180114 182.017024 
L 105.765341 182.344937 
L 106.557955 182.313126 
L 108.143182 180.637537 
L 108.935795 181.840422 
L 109.728409 178.612893 
L 110.521023 199.947119 
L 111.313636 181.082164 
L 112.10625 166.270233 
L 112.898864 206.948413 
L 113.691477 176.250941 
L 114.484091 199.15092 
L 115.276705 211.613577 
L 116.069318 192.574049 
L 116.861932 210.279513 
L 117.654545 213.346678 
L 118.447159 213.687563 
L 119.239773 213.576804 
L 120.032386 213.19691 
L 120.825 211.214692 
L 121.617614 199.6939 
L 122.410227 212.680318 
L 123.202841 211.648743 
L 123.995455 141.54324 
L 124.788068 210.165046 
L 125.580682 210.120466 
L 126.373295 182.375217 
L 127.165909 205.746938 
L 127.958523 205.965273 
L 128.751136 184.186273 
L 129.54375 194.97854 
L 130.336364 188.270584 
L 131.128977 204.025352 
L 131.921591 204.071807 
L 132.714205 202.429397 
L 133.506818 201.213016 
L 134.299432 182.242623 
L 135.092045 202.289915 
L 135.884659 190.11367 
L 136.677273 180.814092 
L 137.469886 197.368514 
L 138.2625 200.040649 
L 139.055114 167.357108 
L 139.847727 176.149162 
L 140.640341 201.231316 
L 141.432955 166.085343 
L 143.018182 199.883796 
L 143.810795 156.604063 
L 144.603409 190.798442 
L 145.396023 182.477772 
L 146.188636 208.953745 
L 146.98125 174.132144 
L 147.773864 184.877265 
L 148.566477 202.784597 
L 149.359091 112.002457 
L 150.151705 161.504743 
L 150.944318 198.153563 
L 151.736932 167.035914 
L 152.529545 175.159445 
L 153.322159 196.725375 
L 154.114773 182.878279 
L 154.907386 187.751162 
L 155.7 171.753698 
L 156.492614 167.929497 
L 157.285227 191.237089 
L 158.077841 200.823025 
L 158.870455 202.812299 
L 159.663068 195.551967 
L 160.455682 173.306757 
L 161.248295 181.702426 
L 162.040909 166.9723 
L 162.833523 183.661261 
L 163.626136 162.09445 
L 164.41875 148.943274 
L 165.211364 166.410232 
L 166.003977 168.525666 
L 166.796591 178.392026 
L 167.589205 183.467994 
L 168.381818 142.775315 
L 169.174432 165.132141 
L 169.967045 161.281131 
L 170.759659 176.25148 
L 171.552273 175.021145 
L 172.344886 171.183066 
L 173.1375 166.654992 
L 173.930114 172.423086 
L 174.722727 135.204625 
L 175.515341 164.644776 
L 176.307955 180.525926 
L 177.100568 143.165385 
L 177.893182 175.675059 
L 178.685795 183.272886 
L 179.478409 164.277991 
L 180.271023 175.397365 
L 181.063636 153.946597 
L 181.85625 177.664206 
L 182.648864 161.376088 
L 183.441477 205.607804 
L 184.234091 239.472302 
L 185.026705 246.24 
L 185.819318 233.853445 
L 187.404545 152.069533 
L 188.197159 181.394666 
L 188.989773 199.505312 
L 189.782386 157.0614 
L 190.575 162.848834 
L 191.367614 193.719927 
L 192.160227 168.712582 
L 192.952841 149.540391 
L 193.745455 190.667401 
L 194.538068 178.167865 
L 195.330682 157.86736 
L 196.123295 189.613026 
L 196.915909 206.48583 
L 197.708523 206.607738 
L 198.501136 208.793483 
L 199.29375 208.248697 
L 200.086364 181.609524 
L 200.878977 161.802918 
L 201.671591 191.268125 
L 202.464205 168.611576 
L 203.256818 169.758147 
L 204.049432 185.444376 
L 204.842045 161.869972 
L 205.634659 167.521989 
L 206.427273 179.730371 
L 207.219886 167.575663 
L 208.0125 177.532191 
L 208.805114 164.498224 
L 210.390341 217.755193 
L 211.182955 218.573438 
L 211.975568 218.392245 
L 212.768182 211.049858 
L 213.560795 180.821362 
L 214.353409 188.020884 
L 215.146023 213.565927 
L 215.938636 186.154904 
L 216.73125 174.343355 
L 217.523864 177.577783 
L 218.316477 187.604254 
L 219.109091 162.932942 
L 219.901705 184.08351 
L 220.694318 180.383438 
L 221.486932 183.703935 
L 222.279545 181.05183 
L 223.072159 176.923231 
L 223.864773 206.411367 
L 224.657386 214.506174 
L 225.45 213.532021 
L 226.242614 184.013752 
L 227.035227 174.356178 
L 227.827841 162.523519 
L 228.620455 184.349615 
L 230.205682 166.945361 
L 230.998295 183.015555 
L 231.790909 184.517998 
L 232.583523 179.009076 
L 233.376136 178.678834 
L 234.16875 187.353222 
L 234.961364 182.184872 
L 235.753977 166.630552 
L 236.546591 184.144341 
L 237.339205 184.767262 
L 238.131818 171.289117 
L 238.924432 182.456477 
L 239.717045 156.758272 
L 240.509659 143.190583 
L 241.302273 170.795309 
L 242.094886 183.487501 
L 242.8875 168.584237 
L 244.472727 187.442052 
L 246.057955 161.31633 
L 246.850568 188.913205 
L 247.643182 183.618235 
L 248.435795 143.251466 
L 249.228409 183.212768 
L 250.021023 188.273435 
L 250.813636 191.826758 
L 251.60625 188.261747 
L 252.398864 190.099336 
L 253.191477 173.620258 
L 253.984091 176.624352 
L 254.776705 168.773999 
L 255.569318 182.874082 
L 256.361932 176.871191 
L 257.154545 183.574035 
L 257.947159 187.270033 
L 258.739773 179.490122 
L 259.532386 163.901173 
L 260.325 179.036611 
L 261.117614 163.284227 
L 261.910227 183.856442 
L 262.702841 177.580498 
L 263.495455 221.20908 
L 264.288068 209.113277 
L 265.873295 225.401457 
L 266.665909 190.946921 
L 267.458523 178.753889 
L 268.251136 169.2674 
L 269.04375 180.023988 
L 269.836364 176.098194 
L 270.628977 169.704903 
L 271.421591 166.013308 
L 272.214205 177.286108 
L 273.006818 167.267457 
L 273.799432 165.766581 
L 274.592045 175.252803 
L 275.384659 173.615259 
L 276.177273 154.44884 
L 276.969886 179.131431 
L 277.7625 177.380088 
L 278.555114 155.492113 
L 279.347727 172.034776 
L 280.140341 169.322543 
L 280.932955 165.204056 
L 281.725568 173.647239 
L 282.518182 180.022776 
L 283.310795 167.412102 
L 284.103409 165.559977 
L 284.896023 181.320558 
L 285.688636 177.738672 
L 286.48125 155.626061 
L 287.273864 172.386417 
L 288.066477 178.791348 
L 288.859091 147.906371 
L 289.651705 180.533099 
L 290.444318 177.249662 
L 291.236932 140.649054 
L 292.029545 162.42223 
L 292.822159 170.203102 
L 293.614773 165.108745 
L 294.407386 169.972729 
L 295.2 178.352877 
L 295.992614 167.97497 
L 296.785227 118.895966 
L 297.577841 160.669849 
L 298.370455 144.639158 
L 299.163068 148.437009 
L 299.955682 168.605545 
L 300.748295 170.827093 
L 301.540909 130.981303 
L 302.333523 174.594601 
L 303.126136 143.408848 
L 303.91875 138.988127 
L 304.711364 175.310244 
L 305.503977 162.347996 
L 306.296591 160.352696 
L 307.089205 171.641189 
L 307.881818 172.643425 
L 308.674432 154.183468 
L 309.467045 167.759336 
L 311.052273 180.646072 
L 311.844886 160.391183 
L 313.430114 184.541749 
L 314.222727 150.036405 
L 315.015341 178.609833 
L 315.807955 177.181394 
L 316.600568 151.84947 
L 317.393182 168.533654 
L 318.978409 142.487732 
L 319.771023 167.305177 
L 320.563636 167.415441 
L 321.35625 168.04724 
L 322.148864 158.795512 
L 323.734091 174.219609 
L 324.526705 158.741253 
L 325.319318 179.547001 
L 326.111932 180.188994 
L 326.904545 145.56401 
L 327.697159 172.234927 
L 329.282386 151.073034 
L 330.075 176.076028 
L 330.867614 166.059871 
L 331.660227 151.466061 
L 332.452841 174.153949 
L 333.245455 168.654781 
L 334.038068 159.804776 
L 334.830682 165.439488 
L 335.623295 163.802388 
L 336.415909 167.371357 
L 337.208523 157.548409 
L 338.001136 150.779926 
L 338.79375 181.080536 
L 339.586364 147.906902 
L 340.378977 179.655035 
L 341.171591 174.659767 
L 341.964205 151.194801 
L 342.756818 173.436703 
L 343.549432 173.077156 
L 344.342045 160.735238 
L 345.134659 174.295349 
L 345.927273 171.498799 
L 346.719886 172.122231 
L 347.5125 172.126942 
L 348.305114 171.091273 
L 349.097727 169.421801 
L 349.890341 157.440149 
L 350.682955 175.258715 
L 351.475568 183.894697 
L 352.268182 152.475745 
L 353.853409 175.112251 
L 354.646023 153.853396 
L 355.438636 177.85891 
L 356.23125 180.298898 
L 357.023864 172.567277 
L 357.816477 172.669745 
L 358.609091 173.28622 
L 359.401705 171.798222 
L 360.194318 168.126386 
L 360.986932 172.601544 
L 361.779545 179.30608 
L 362.572159 159.016998 
L 363.364773 169.33362 
L 364.157386 177.104759 
L 364.95 156.084118 
L 365.742614 176.486197 
L 366.535227 180.521953 
L 367.327841 147.886445 
L 368.120455 184.083813 
L 368.913068 189.833002 
L 369.705682 188.963637 
L 370.498295 203.80368 
L 371.290909 214.972106 
L 372.083523 176.546435 
L 372.876136 174.801207 
L 373.66875 163.891083 
L 374.461364 170.832223 
L 375.253977 163.062372 
L 376.046591 183.252117 
L 376.839205 183.6292 
L 377.631818 138.990906 
L 378.424432 173.831811 
L 379.217045 173.747456 
L 380.009659 164.921313 
L 380.802273 167.003936 
L 381.594886 127.29681 
L 382.3875 170.140177 
L 383.180114 167.289188 
L 383.972727 175.240428 
L 384.765341 175.456771 
L 385.557955 165.984872 
L 386.350568 178.413991 
L 387.143182 168.961439 
L 387.935795 133.900568 
L 388.728409 174.384312 
L 389.521023 174.856204 
L 390.313636 150.516664 
L 391.10625 169.139388 
L 391.898864 175.08522 
L 392.691477 156.366474 
L 393.484091 142.656435 
L 394.276705 164.115571 
L 395.069318 167.058673 
L 395.861932 173.628432 
L 396.654545 175.490615 
L 397.447159 178.757318 
L 398.239773 174.884842 
L 399.032386 179.653849 
L 399.825 179.479396 
L 400.617614 144.324565 
L 401.410227 174.20313 
L 402.202841 173.028218 
L 402.995455 157.736252 
L 403.788068 175.560513 
L 404.580682 166.07952 
L 405.373295 140.506033 
L 406.165909 167.836202 
L 406.958523 169.523976 
L 407.751136 170.364885 
L 408.54375 181.653379 
L 409.336364 167.377645 
L 410.128977 166.281443 
L 410.921591 168.215184 
L 411.714205 169.542713 
L 412.506818 174.604913 
L 413.299432 168.801181 
L 414.092045 185.248838 
L 414.884659 180.153689 
L 415.677273 159.905018 
L 416.469886 179.147361 
L 417.2625 177.961738 
L 418.055114 156.759317 
L 418.847727 178.752334 
L 419.640341 128.451165 
L 420.432955 166.818373 
L 421.225568 175.97251 
L 422.018182 189.577761 
L 422.810795 177.412676 
L 423.603409 184.912335 
L 424.396023 183.868013 
L 425.188636 174.784682 
L 425.98125 137.510299 
L 426.773864 177.633897 
L 427.566477 166.999458 
L 428.359091 135.563631 
L 429.151705 174.252538 
L 429.944318 175.49807 
L 430.736932 158.120267 
L 431.529545 175.792144 
L 433.114773 161.58945 
L 433.907386 175.852808 
L 434.7 161.439622 
L 435.492614 176.777865 
L 436.285227 168.928337 
L 437.077841 177.496129 
L 437.870455 169.822194 
L 438.663068 153.195376 
L 439.455682 162.446358 
L 440.248295 179.632663 
L 441.040909 157.441322 
L 441.833523 176.016377 
L 442.626136 163.32446 
L 444.211364 181.652048 
L 445.003977 187.509585 
L 445.796591 174.059159 
L 446.589205 176.320848 
L 447.381818 191.32937 
L 448.174432 191.453567 
L 448.967045 137.066735 
L 449.759659 180.713 
L 450.552273 206.876642 
L 451.344886 207.953749 
L 452.1375 179.755397 
L 452.930114 179.219132 
L 453.722727 144.360364 
L 454.515341 185.199871 
L 455.307955 192.086959 
L 456.100568 162.397136 
L 456.893182 182.521597 
L 457.685795 178.786554 
L 458.478409 189.779238 
L 459.271023 180.465728 
L 460.063636 180.397806 
L 460.85625 178.129213 
L 461.648864 162.377855 
L 462.441477 173.12232 
L 463.234091 199.267022 
L 464.819318 171.686568 
L 465.611932 172.085506 
L 466.404545 157.332272 
L 467.197159 162.210678 
L 467.989773 175.417426 
L 468.782386 157.920657 
L 469.575 186.558239 
L 470.367614 158.580021 
L 471.160227 164.805755 
L 471.952841 174.565788 
L 472.745455 167.487853 
L 473.538068 174.295143 
L 474.330682 172.429481 
L 475.123295 174.656084 
L 475.915909 154.565909 
L 476.708523 172.186184 
L 477.501136 183.254459 
L 478.29375 138.590516 
L 479.086364 147.285708 
L 479.878977 170.108096 
L 480.671591 181.05199 
L 482.256818 142.513304 
L 483.049432 111.735698 
L 483.842045 161.168083 
L 485.427273 170.582646 
L 486.219886 157.846949 
L 487.0125 164.972993 
L 487.805114 170.275457 
L 488.597727 170.933858 
L 489.390341 169.880597 
L 490.182955 180.049651 
L 490.975568 173.772916 
L 491.768182 139.42403 
L 492.560795 172.222446 
L 493.353409 176.252961 
L 494.146023 143.578748 
L 494.938636 176.659397 
L 495.73125 169.780258 
L 496.523864 168.841725 
L 497.316477 179.607487 
L 498.109091 157.359589 
L 498.109091 157.359589 
" style="fill:none;stroke:#1f77b4;stroke-linecap:square;stroke-width:1.5;"/>
   </g>
   <g id="patch_3">
    <path d="M 72 256.32 
L 72 34.56 
" style="fill:none;stroke:#000000;stroke-linecap:square;stroke-linejoin:miter;stroke-width:0.8;"/>
   </g>
   <g id="patch_4">
    <path d="M 518.4 256.32 
L 518.4 34.56 
" style="fill:none;stroke:#000000;stroke-linecap:square;stroke-linejoin:miter;stroke-width:0.8;"/>
   </g>
   <g id="patch_5">
    <path d="M 72 256.32 
L 518.4 256.32 
" style="fill:none;stroke:#000000;stroke-linecap:square;stroke-linejoin:miter;stroke-width:0.8;"/>
   </g>
   <g id="patch_6">
    <path d="M 72 34.56 
L 518.4 34.56 
" style="fill:none;stroke:#000000;stroke-linecap:square;stroke-linejoin:miter;stroke-width:0.8;"/>
   </g>
   <g id="text_17">
    <!-- Frekvencni charakteristika filtru (match_only) -->
    <g transform="translate(158.970937 28.56)scale(0.12 -0.12)">
     <defs>
      <path d="M 628 4666 
L 3309 4666 
L 3309 4134 
L 1259 4134 
L 1259 2759 
L 3109 2759 
L 3109 2228 
L 1259 2228 
L 1259 0 
L 628 0 
L 628 4666 
z
" id="DejaVuSans-46" transform="scale(0.015625)"/>
      <path d="M 603 3500 
L 1178 3500 
L 1178 0 
L 603 0 
L 603 3500 
z
M 603 4863 
L 1178 4863 
L 1178 4134 
L 603 4134 
L 603 4863 
z
" id="DejaVuSans-69" transform="scale(0.015625)"/>
      <path d="M 3513 2113 
L 3513 0 
L 2938 0 
L 2938 2094 
Q 2938 2591 2744 2837 
Q 2550 3084 2163 3084 
Q 1697 3084 1428 2787 
Q 1159 2491 1159 1978 
L 1159 0 
L 581 0 
L 581 4863 
L 1159 4863 
L 1159 2956 
Q 1366 3272 1645 3428 
Q 1925 3584 2291 3584 
Q 2894 3584 3203 3211 
Q 3513 2838 3513 2113 
z
" id="DejaVuSans-68" transform="scale(0.015625)"/>
      <path d="M 2194 1759 
Q 1497 1759 1228 1600 
Q 959 1441 959 1056 
Q 959 750 1161 570 
Q 1363 391 1709 391 
Q 2188 391 2477 730 
Q 2766 1069 2766 1631 
L 2766 1759 
L 2194 1759 
z
M 3341 1997 
L 3341 0 
L 2766 0 
L 2766 531 
Q 2569 213 2275 61 
Q 1981 -91 1556 -91 
Q 1019 -91 701 211 
Q 384 513 384 1019 
Q 384 1609 779 1909 
Q 1175 2209 1959 2209 
L 2766 2209 
L 2766 2266 
Q 2766 2663 2505 2880 
Q 2244 3097 1772 3097 
Q 1472 3097 1187 3025 
Q 903 2953 641 2809 
L 641 3341 
Q 956 3463 1253 3523 
Q 1550 3584 1831 3584 
Q 2591 3584 2966 3190 
Q 3341 2797 3341 1997 
z
" id="DejaVuSans-61" transform="scale(0.015625)"/>
      <path d="M 1172 4494 
L 1172 3500 
L 2356 3500 
L 2356 3053 
L 1172 3053 
L 1172 1153 
Q 1172 725 1289 603 
Q 1406 481 1766 481 
L 2356 481 
L 2356 0 
L 1766 0 
Q 1100 0 847 248 
Q 594 497 594 1153 
L 594 3053 
L 172 3053 
L 172 3500 
L 594 3500 
L 594 4494 
L 1172 4494 
z
" id="DejaVuSans-74" transform="scale(0.015625)"/>
      <path d="M 2834 3397 
L 2834 2853 
Q 2591 2978 2328 3040 
Q 2066 3103 1784 3103 
Q 1356 3103 1142 2972 
Q 928 2841 928 2578 
Q 928 2378 1081 2264 
Q 1234 2150 1697 2047 
L 1894 2003 
Q 2506 1872 2764 1633 
Q 3022 1394 3022 966 
Q 3022 478 2636 193 
Q 2250 -91 1575 -91 
Q 1294 -91 989 -36 
Q 684 19 347 128 
L 347 722 
Q 666 556 975 473 
Q 1284 391 1588 391 
Q 1994 391 2212 530 
Q 2431 669 2431 922 
Q 2431 1156 2273 1281 
Q 2116 1406 1581 1522 
L 1381 1569 
Q 847 1681 609 1914 
Q 372 2147 372 2553 
Q 372 3047 722 3315 
Q 1072 3584 1716 3584 
Q 2034 3584 2315 3537 
Q 2597 3491 2834 3397 
z
" id="DejaVuSans-73" transform="scale(0.015625)"/>
      <path d="M 603 4863 
L 1178 4863 
L 1178 0 
L 603 0 
L 603 4863 
z
" id="DejaVuSans-6c" transform="scale(0.015625)"/>
      <path d="M 544 1381 
L 544 3500 
L 1119 3500 
L 1119 1403 
Q 1119 906 1312 657 
Q 1506 409 1894 409 
Q 2359 409 2629 706 
Q 2900 1003 2900 1516 
L 2900 3500 
L 3475 3500 
L 3475 0 
L 2900 0 
L 2900 538 
Q 2691 219 2414 64 
Q 2138 -91 1772 -91 
Q 1169 -91 856 284 
Q 544 659 544 1381 
z
M 1991 3584 
L 1991 3584 
z
" id="DejaVuSans-75" transform="scale(0.015625)"/>
      <path d="M 1984 4856 
Q 1566 4138 1362 3434 
Q 1159 2731 1159 2009 
Q 1159 1288 1364 580 
Q 1569 -128 1984 -844 
L 1484 -844 
Q 1016 -109 783 600 
Q 550 1309 550 2009 
Q 550 2706 781 3412 
Q 1013 4119 1484 4856 
L 1984 4856 
z
" id="DejaVuSans-28" transform="scale(0.015625)"/>
      <path d="M 3328 2828 
Q 3544 3216 3844 3400 
Q 4144 3584 4550 3584 
Q 5097 3584 5394 3201 
Q 5691 2819 5691 2113 
L 5691 0 
L 5113 0 
L 5113 2094 
Q 5113 2597 4934 2840 
Q 4756 3084 4391 3084 
Q 3944 3084 3684 2787 
Q 3425 2491 3425 1978 
L 3425 0 
L 2847 0 
L 2847 2094 
Q 2847 2600 2669 2842 
Q 2491 3084 2119 3084 
Q 1678 3084 1418 2786 
Q 1159 2488 1159 1978 
L 1159 0 
L 581 0 
L 581 3500 
L 1159 3500 
L 1159 2956 
Q 1356 3278 1631 3431 
Q 1906 3584 2284 3584 
Q 2666 3584 2933 3390 
Q 3200 3197 3328 2828 
z
" id="DejaVuSans-6d" transform="scale(0.015625)"/>
      <path d="M 3263 -1063 
L 3263 -1509 
L -63 -1509 
L -63 -1063 
L 3263 -1063 
z
" id="DejaVuSans-5f" transform="scale(0.015625)"/>
      <path d="M 1959 3097 
Q 1497 3097 1228 2736 
Q 959 2375 959 1747 
Q 959 1119 1226 758 
Q 1494 397 1959 397 
Q 2419 397 2687 759 
Q 2956 1122 2956 1747 
Q 2956 2369 2687 2733 
Q 2419 3097 1959 3097 
z
M 1959 3584 
Q 2709 3584 3137 3096 
Q 3566 2609 3566 1747 
Q 3566 888 3137 398 
Q 2709 -91 1959 -91 
Q 1206 -91 779 398 
Q 353 888 353 1747 
Q 353 2609 779 3096 
Q 1206 3584 1959 3584 
z
" id="DejaVuSans-6f" transform="scale(0.015625)"/>
      <path d="M 2059 -325 
Q 1816 -950 1584 -1140 
Q 1353 -1331 966 -1331 
L 506 -1331 
L 506 -850 
L 844 -850 
Q 1081 -850 1212 -737 
Q 1344 -625 1503 -206 
L 1606 56 
L 191 3500 
L 800 3500 
L 1894 763 
L 2988 3500 
L 3597 3500 
L 2059 -325 
z
" id="DejaVuSans-79" transform="scale(0.015625)"/>
      <path d="M 513 4856 
L 1013 4856 
Q 1481 4119 1714 3412 
Q 1947 2706 1947 2009 
Q 1947 1309 1714 600 
Q 1481 -109 1013 -844 
L 513 -844 
Q 928 -128 1133 580 
Q 1338 1288 1338 2009 
Q 1338 2731 1133 3434 
Q 928 4138 513 4856 
z
" id="DejaVuSans-29" transform="scale(0.015625)"/>
     </defs>
     <use xlink:href="#DejaVuSans-46"/>
     <use x="50.269531" xlink:href="#DejaVuSans-72"/>
     <use x="89.132812" xlink:href="#DejaVuSans-65"/>
     <use x="150.65625" xlink:href="#DejaVuSans-6b"/>
     <use x="208.566406" xlink:href="#DejaVuSans-76"/>
     <use x="267.746094" xlink:href="#DejaVuSans-65"/>
     <use x="329.269531" xlink:href="#DejaVuSans-6e"/>
     <use x="392.648438" xlink:href="#DejaVuSans-63"/>
     <use x="447.628906" xlink:href="#DejaVuSans-6e"/>
     <use x="511.007812" xlink:href="#DejaVuSans-69"/>
     <use x="538.791016" xlink:href="#DejaVuSans-20"/>
     <use x="570.578125" xlink:href="#DejaVuSans-63"/>
     <use x="625.558594" xlink:href="#DejaVuSans-68"/>
     <use x="688.9375" xlink:href="#DejaVuSans-61"/>
     <use x="750.216797" xlink:href="#DejaVuSans-72"/>
     <use x="791.330078" xlink:href="#DejaVuSans-61"/>
     <use x="852.609375" xlink:href="#DejaVuSans-6b"/>
     <use x="910.519531" xlink:href="#DejaVuSans-74"/>
     <use x="949.728516" xlink:href="#DejaVuSans-65"/>
     <use x="1011.251953" xlink:href="#DejaVuSans-72"/>
     <use x="1052.365234" xlink:href="#DejaVuSans-69"/>
     <use x="1080.148438" xlink:href="#DejaVuSans-73"/>
     <use x="1132.248047" xlink:href="#DejaVuSans-74"/>
     <use x="1171.457031" xlink:href="#DejaVuSans-69"/>
     <use x="1199.240234" xlink:href="#DejaVuSans-6b"/>
     <use x="1255.400391" xlink:href="#DejaVuSans-61"/>
     <use x="1316.679688" xlink:href="#DejaVuSans-20"/>
     <use x="1348.466797" xlink:href="#DejaVuSans-66"/>
     <use x="1383.671875" xlink:href="#DejaVuSans-69"/>
     <use x="1411.455078" xlink:href="#DejaVuSans-6c"/>
     <use x="1439.238281" xlink:href="#DejaVuSans-74"/>
     <use x="1478.447266" xlink:href="#DejaVuSans-72"/>
     <use x="1519.560547" xlink:href="#DejaVuSans-75"/>
     <use x="1582.939453" xlink:href="#DejaVuSans-20"/>
     <use x="1614.726562" xlink:href="#DejaVuSans-28"/>
     <use x="1653.740234" xlink:href="#DejaVuSans-6d"/>
     <use x="1751.152344" xlink:href="#DejaVuSans-61"/>
     <use x="1812.431641" xlink:href="#DejaVuSans-74"/>
     <use x="1851.640625" xlink:href="#DejaVuSans-63"/>
     <use x="1906.621094" xlink:href="#DejaVuSans-68"/>
     <use x="1970" xlink:href="#DejaVuSans-5f"/>
     <use x="2020" xlink:href="#DejaVuSans-6f"/>
     <use x="2081.181641" xlink:href="#DejaVuSans-6e"/>
     <use x="2144.560547" xlink:href="#DejaVuSans-6c"/>
     <use x="2172.34375" xlink:href="#DejaVuSans-79"/>
     <use x="2231.523438" xlink:href="#DejaVuSans-29"/>
    </g>
   </g>
  </g>
 </g>
 <defs>
  <clipPath id="pb0dcaead43">
   <rect height="221.76" width="446.4" x="72" y="34.56"/>
  </clipPath>
 </defs>
</svg>
