<?xml version="1.0" encoding="utf-8" standalone="no"?>
<!DOCTYPE svg PUBLIC "-//W3C//DTD SVG 1.1//EN"
  "http://www.w3.org/Graphics/SVG/1.1/DTD/svg11.dtd">
<svg height="288pt" version="1.1" viewBox="0 0 1152 288" width="1152pt" xmlns="http://www.w3.org/2000/svg" xmlns:xlink="http://www.w3.org/1999/xlink">
 <metadata>
  <rdf:RDF xmlns:cc="http://creativecommons.org/ns#" xmlns:dc="http://purl.org/dc/elements/1.1/" xmlns:rdf="http://www.w3.org/1999/02/22-rdf-syntax-ns#">
   <cc:Work>
    <dc:type rdf:resource="http://purl.org/dc/dcmitype/StillImage"/>
    <dc:date>2021-09-09T14:47:16.206837</dc:date>
    <dc:format>image/svg+xml</dc:format>
    <dc:creator>
     <cc:Agent>
      <dc:title>Matplotlib v3.4.3, https://matplotlib.org/</dc:title>
     </cc:Agent>
    </dc:creator>
   </cc:Work>
  </rdf:RDF>
 </metadata>
 <defs>
  <style type="text/css">*{stroke-linecap:butt;stroke-linejoin:round;}</style>
 </defs>
 <g id="figure_1">
  <g id="patch_1">
   <path d="M 0 288 
L 1152 288 
L 1152 0 
L 0 0 
z
" style="fill:#ffffff;"/>
  </g>
  <g id="axes_1">
   <g id="patch_2">
    <path d="M 144 256.32 
L 1036.8 256.32 
L 1036.8 34.56 
L 144 34.56 
z
" style="fill:#ffffff;"/>
   </g>
   <g id="matplotlib.axis_1">
    <g id="xtick_1">
     <g id="line2d_1">
      <defs>
       <path d="M 0 0 
L 0 3.5 
" id="m153afd9227" style="stroke:#000000;stroke-width:0.8;"/>
      </defs>
      <g>
       <use style="stroke:#000000;stroke-width:0.8;" x="184.581818" xlink:href="#m153afd9227" y="256.32"/>
      </g>
     </g>
     <g id="text_1">
      <!-- 0 -->
      <g transform="translate(181.400568 270.918437)scale(0.1 -0.1)">
       <defs>
        <path d="M 2034 4250 
Q 1547 4250 1301 3770 
Q 1056 3291 1056 2328 
Q 1056 1369 1301 889 
Q 1547 409 2034 409 
Q 2525 409 2770 889 
Q 3016 1369 3016 2328 
Q 3016 3291 2770 3770 
Q 2525 4250 2034 4250 
z
M 2034 4750 
Q 2819 4750 3233 4129 
Q 3647 3509 3647 2328 
Q 3647 1150 3233 529 
Q 2819 -91 2034 -91 
Q 1250 -91 836 529 
Q 422 1150 422 2328 
Q 422 3509 836 4129 
Q 1250 4750 2034 4750 
z
" id="DejaVuSans-30" transform="scale(0.015625)"/>
       </defs>
       <use xlink:href="#DejaVuSans-30"/>
      </g>
     </g>
    </g>
    <g id="xtick_2">
     <g id="line2d_2">
      <g>
       <use style="stroke:#000000;stroke-width:0.8;" x="311.797549" xlink:href="#m153afd9227" y="256.32"/>
      </g>
     </g>
     <g id="text_2">
      <!-- 50 -->
      <g transform="translate(305.435049 270.918437)scale(0.1 -0.1)">
       <defs>
        <path d="M 691 4666 
L 3169 4666 
L 3169 4134 
L 1269 4134 
L 1269 2991 
Q 1406 3038 1543 3061 
Q 1681 3084 1819 3084 
Q 2600 3084 3056 2656 
Q 3513 2228 3513 1497 
Q 3513 744 3044 326 
Q 2575 -91 1722 -91 
Q 1428 -91 1123 -41 
Q 819 9 494 109 
L 494 744 
Q 775 591 1075 516 
Q 1375 441 1709 441 
Q 2250 441 2565 725 
Q 2881 1009 2881 1497 
Q 2881 1984 2565 2268 
Q 2250 2553 1709 2553 
Q 1456 2553 1204 2497 
Q 953 2441 691 2322 
L 691 4666 
z
" id="DejaVuSans-35" transform="scale(0.015625)"/>
       </defs>
       <use xlink:href="#DejaVuSans-35"/>
       <use x="63.623047" xlink:href="#DejaVuSans-30"/>
      </g>
     </g>
    </g>
    <g id="xtick_3">
     <g id="line2d_3">
      <g>
       <use style="stroke:#000000;stroke-width:0.8;" x="439.01328" xlink:href="#m153afd9227" y="256.32"/>
      </g>
     </g>
     <g id="text_3">
      <!-- 100 -->
      <g transform="translate(429.46953 270.918437)scale(0.1 -0.1)">
       <defs>
        <path d="M 794 531 
L 1825 531 
L 1825 4091 
L 703 3866 
L 703 4441 
L 1819 4666 
L 2450 4666 
L 2450 531 
L 3481 531 
L 3481 0 
L 794 0 
L 794 531 
z
" id="DejaVuSans-31" transform="scale(0.015625)"/>
       </defs>
       <use xlink:href="#DejaVuSans-31"/>
       <use x="63.623047" xlink:href="#DejaVuSans-30"/>
       <use x="127.246094" xlink:href="#DejaVuSans-30"/>
      </g>
     </g>
    </g>
    <g id="xtick_4">
     <g id="line2d_4">
      <g>
       <use style="stroke:#000000;stroke-width:0.8;" x="566.229011" xlink:href="#m153afd9227" y="256.32"/>
      </g>
     </g>
     <g id="text_4">
      <!-- 150 -->
      <g transform="translate(556.685261 270.918437)scale(0.1 -0.1)">
       <use xlink:href="#DejaVuSans-31"/>
       <use x="63.623047" xlink:href="#DejaVuSans-35"/>
       <use x="127.246094" xlink:href="#DejaVuSans-30"/>
      </g>
     </g>
    </g>
    <g id="xtick_5">
     <g id="line2d_5">
      <g>
       <use style="stroke:#000000;stroke-width:0.8;" x="693.444742" xlink:href="#m153afd9227" y="256.32"/>
      </g>
     </g>
     <g id="text_5">
      <!-- 200 -->
      <g transform="translate(683.900992 270.918437)scale(0.1 -0.1)">
       <defs>
        <path d="M 1228 531 
L 3431 531 
L 3431 0 
L 469 0 
L 469 531 
Q 828 903 1448 1529 
Q 2069 2156 2228 2338 
Q 2531 2678 2651 2914 
Q 2772 3150 2772 3378 
Q 2772 3750 2511 3984 
Q 2250 4219 1831 4219 
Q 1534 4219 1204 4116 
Q 875 4013 500 3803 
L 500 4441 
Q 881 4594 1212 4672 
Q 1544 4750 1819 4750 
Q 2544 4750 2975 4387 
Q 3406 4025 3406 3419 
Q 3406 3131 3298 2873 
Q 3191 2616 2906 2266 
Q 2828 2175 2409 1742 
Q 1991 1309 1228 531 
z
" id="DejaVuSans-32" transform="scale(0.015625)"/>
       </defs>
       <use xlink:href="#DejaVuSans-32"/>
       <use x="63.623047" xlink:href="#DejaVuSans-30"/>
       <use x="127.246094" xlink:href="#DejaVuSans-30"/>
      </g>
     </g>
    </g>
    <g id="xtick_6">
     <g id="line2d_6">
      <g>
       <use style="stroke:#000000;stroke-width:0.8;" x="820.660473" xlink:href="#m153afd9227" y="256.32"/>
      </g>
     </g>
     <g id="text_6">
      <!-- 250 -->
      <g transform="translate(811.116723 270.918437)scale(0.1 -0.1)">
       <use xlink:href="#DejaVuSans-32"/>
       <use x="63.623047" xlink:href="#DejaVuSans-35"/>
       <use x="127.246094" xlink:href="#DejaVuSans-30"/>
      </g>
     </g>
    </g>
    <g id="xtick_7">
     <g id="line2d_7">
      <g>
       <use style="stroke:#000000;stroke-width:0.8;" x="947.876204" xlink:href="#m153afd9227" y="256.32"/>
      </g>
     </g>
     <g id="text_7">
      <!-- 300 -->
      <g transform="translate(938.332454 270.918437)scale(0.1 -0.1)">
       <defs>
        <path d="M 2597 2516 
Q 3050 2419 3304 2112 
Q 3559 1806 3559 1356 
Q 3559 666 3084 287 
Q 2609 -91 1734 -91 
Q 1441 -91 1130 -33 
Q 819 25 488 141 
L 488 750 
Q 750 597 1062 519 
Q 1375 441 1716 441 
Q 2309 441 2620 675 
Q 2931 909 2931 1356 
Q 2931 1769 2642 2001 
Q 2353 2234 1838 2234 
L 1294 2234 
L 1294 2753 
L 1863 2753 
Q 2328 2753 2575 2939 
Q 2822 3125 2822 3475 
Q 2822 3834 2567 4026 
Q 2313 4219 1838 4219 
Q 1578 4219 1281 4162 
Q 984 4106 628 3988 
L 628 4550 
Q 988 4650 1302 4700 
Q 1616 4750 1894 4750 
Q 2613 4750 3031 4423 
Q 3450 4097 3450 3541 
Q 3450 3153 3228 2886 
Q 3006 2619 2597 2516 
z
" id="DejaVuSans-33" transform="scale(0.015625)"/>
       </defs>
       <use xlink:href="#DejaVuSans-33"/>
       <use x="63.623047" xlink:href="#DejaVuSans-30"/>
       <use x="127.246094" xlink:href="#DejaVuSans-30"/>
      </g>
     </g>
    </g>
    <g id="text_8">
     <!-- vzorky -->
     <g transform="translate(574.028125 284.596563)scale(0.1 -0.1)">
      <defs>
       <path d="M 191 3500 
L 800 3500 
L 1894 563 
L 2988 3500 
L 3597 3500 
L 2284 0 
L 1503 0 
L 191 3500 
z
" id="DejaVuSans-76" transform="scale(0.015625)"/>
       <path d="M 353 3500 
L 3084 3500 
L 3084 2975 
L 922 459 
L 3084 459 
L 3084 0 
L 275 0 
L 275 525 
L 2438 3041 
L 353 3041 
L 353 3500 
z
" id="DejaVuSans-7a" transform="scale(0.015625)"/>
       <path d="M 1959 3097 
Q 1497 3097 1228 2736 
Q 959 2375 959 1747 
Q 959 1119 1226 758 
Q 1494 397 1959 397 
Q 2419 397 2687 759 
Q 2956 1122 2956 1747 
Q 2956 2369 2687 2733 
Q 2419 3097 1959 3097 
z
M 1959 3584 
Q 2709 3584 3137 3096 
Q 3566 2609 3566 1747 
Q 3566 888 3137 398 
Q 2709 -91 1959 -91 
Q 1206 -91 779 398 
Q 353 888 353 1747 
Q 353 2609 779 3096 
Q 1206 3584 1959 3584 
z
" id="DejaVuSans-6f" transform="scale(0.015625)"/>
       <path d="M 2631 2963 
Q 2534 3019 2420 3045 
Q 2306 3072 2169 3072 
Q 1681 3072 1420 2755 
Q 1159 2438 1159 1844 
L 1159 0 
L 581 0 
L 581 3500 
L 1159 3500 
L 1159 2956 
Q 1341 3275 1631 3429 
Q 1922 3584 2338 3584 
Q 2397 3584 2469 3576 
Q 2541 3569 2628 3553 
L 2631 2963 
z
" id="DejaVuSans-72" transform="scale(0.015625)"/>
       <path d="M 581 4863 
L 1159 4863 
L 1159 1991 
L 2875 3500 
L 3609 3500 
L 1753 1863 
L 3688 0 
L 2938 0 
L 1159 1709 
L 1159 0 
L 581 0 
L 581 4863 
z
" id="DejaVuSans-6b" transform="scale(0.015625)"/>
       <path d="M 2059 -325 
Q 1816 -950 1584 -1140 
Q 1353 -1331 966 -1331 
L 506 -1331 
L 506 -850 
L 844 -850 
Q 1081 -850 1212 -737 
Q 1344 -625 1503 -206 
L 1606 56 
L 191 3500 
L 800 3500 
L 1894 763 
L 2988 3500 
L 3597 3500 
L 2059 -325 
z
" id="DejaVuSans-79" transform="scale(0.015625)"/>
      </defs>
      <use xlink:href="#DejaVuSans-76"/>
      <use x="59.179688" xlink:href="#DejaVuSans-7a"/>
      <use x="111.669922" xlink:href="#DejaVuSans-6f"/>
      <use x="172.851562" xlink:href="#DejaVuSans-72"/>
      <use x="213.964844" xlink:href="#DejaVuSans-6b"/>
      <use x="268.25" xlink:href="#DejaVuSans-79"/>
     </g>
    </g>
   </g>
   <g id="matplotlib.axis_2">
    <g id="ytick_1">
     <g id="line2d_8">
      <defs>
       <path d="M 0 0 
L -3.5 0 
" id="m41de5f51bd" style="stroke:#000000;stroke-width:0.8;"/>
      </defs>
      <g>
       <use style="stroke:#000000;stroke-width:0.8;" x="144" xlink:href="#m41de5f51bd" y="251.642406"/>
      </g>
     </g>
     <g id="text_9">
      <!-- −0.8 -->
      <g transform="translate(112.717187 255.441624)scale(0.1 -0.1)">
       <defs>
        <path d="M 678 2272 
L 4684 2272 
L 4684 1741 
L 678 1741 
L 678 2272 
z
" id="DejaVuSans-2212" transform="scale(0.015625)"/>
        <path d="M 684 794 
L 1344 794 
L 1344 0 
L 684 0 
L 684 794 
z
" id="DejaVuSans-2e" transform="scale(0.015625)"/>
        <path d="M 2034 2216 
Q 1584 2216 1326 1975 
Q 1069 1734 1069 1313 
Q 1069 891 1326 650 
Q 1584 409 2034 409 
Q 2484 409 2743 651 
Q 3003 894 3003 1313 
Q 3003 1734 2745 1975 
Q 2488 2216 2034 2216 
z
M 1403 2484 
Q 997 2584 770 2862 
Q 544 3141 544 3541 
Q 544 4100 942 4425 
Q 1341 4750 2034 4750 
Q 2731 4750 3128 4425 
Q 3525 4100 3525 3541 
Q 3525 3141 3298 2862 
Q 3072 2584 2669 2484 
Q 3125 2378 3379 2068 
Q 3634 1759 3634 1313 
Q 3634 634 3220 271 
Q 2806 -91 2034 -91 
Q 1263 -91 848 271 
Q 434 634 434 1313 
Q 434 1759 690 2068 
Q 947 2378 1403 2484 
z
M 1172 3481 
Q 1172 3119 1398 2916 
Q 1625 2713 2034 2713 
Q 2441 2713 2670 2916 
Q 2900 3119 2900 3481 
Q 2900 3844 2670 4047 
Q 2441 4250 2034 4250 
Q 1625 4250 1398 4047 
Q 1172 3844 1172 3481 
z
" id="DejaVuSans-38" transform="scale(0.015625)"/>
       </defs>
       <use xlink:href="#DejaVuSans-2212"/>
       <use x="83.789062" xlink:href="#DejaVuSans-30"/>
       <use x="147.412109" xlink:href="#DejaVuSans-2e"/>
       <use x="179.199219" xlink:href="#DejaVuSans-38"/>
      </g>
     </g>
    </g>
    <g id="ytick_2">
     <g id="line2d_9">
      <g>
       <use style="stroke:#000000;stroke-width:0.8;" x="144" xlink:href="#m41de5f51bd" y="226.404734"/>
      </g>
     </g>
     <g id="text_10">
      <!-- −0.6 -->
      <g transform="translate(112.717187 230.203952)scale(0.1 -0.1)">
       <defs>
        <path d="M 2113 2584 
Q 1688 2584 1439 2293 
Q 1191 2003 1191 1497 
Q 1191 994 1439 701 
Q 1688 409 2113 409 
Q 2538 409 2786 701 
Q 3034 994 3034 1497 
Q 3034 2003 2786 2293 
Q 2538 2584 2113 2584 
z
M 3366 4563 
L 3366 3988 
Q 3128 4100 2886 4159 
Q 2644 4219 2406 4219 
Q 1781 4219 1451 3797 
Q 1122 3375 1075 2522 
Q 1259 2794 1537 2939 
Q 1816 3084 2150 3084 
Q 2853 3084 3261 2657 
Q 3669 2231 3669 1497 
Q 3669 778 3244 343 
Q 2819 -91 2113 -91 
Q 1303 -91 875 529 
Q 447 1150 447 2328 
Q 447 3434 972 4092 
Q 1497 4750 2381 4750 
Q 2619 4750 2861 4703 
Q 3103 4656 3366 4563 
z
" id="DejaVuSans-36" transform="scale(0.015625)"/>
       </defs>
       <use xlink:href="#DejaVuSans-2212"/>
       <use x="83.789062" xlink:href="#DejaVuSans-30"/>
       <use x="147.412109" xlink:href="#DejaVuSans-2e"/>
       <use x="179.199219" xlink:href="#DejaVuSans-36"/>
      </g>
     </g>
    </g>
    <g id="ytick_3">
     <g id="line2d_10">
      <g>
       <use style="stroke:#000000;stroke-width:0.8;" x="144" xlink:href="#m41de5f51bd" y="201.167062"/>
      </g>
     </g>
     <g id="text_11">
      <!-- −0.4 -->
      <g transform="translate(112.717187 204.96628)scale(0.1 -0.1)">
       <defs>
        <path d="M 2419 4116 
L 825 1625 
L 2419 1625 
L 2419 4116 
z
M 2253 4666 
L 3047 4666 
L 3047 1625 
L 3713 1625 
L 3713 1100 
L 3047 1100 
L 3047 0 
L 2419 0 
L 2419 1100 
L 313 1100 
L 313 1709 
L 2253 4666 
z
" id="DejaVuSans-34" transform="scale(0.015625)"/>
       </defs>
       <use xlink:href="#DejaVuSans-2212"/>
       <use x="83.789062" xlink:href="#DejaVuSans-30"/>
       <use x="147.412109" xlink:href="#DejaVuSans-2e"/>
       <use x="179.199219" xlink:href="#DejaVuSans-34"/>
      </g>
     </g>
    </g>
    <g id="ytick_4">
     <g id="line2d_11">
      <g>
       <use style="stroke:#000000;stroke-width:0.8;" x="144" xlink:href="#m41de5f51bd" y="175.92939"/>
      </g>
     </g>
     <g id="text_12">
      <!-- −0.2 -->
      <g transform="translate(112.717187 179.728608)scale(0.1 -0.1)">
       <use xlink:href="#DejaVuSans-2212"/>
       <use x="83.789062" xlink:href="#DejaVuSans-30"/>
       <use x="147.412109" xlink:href="#DejaVuSans-2e"/>
       <use x="179.199219" xlink:href="#DejaVuSans-32"/>
      </g>
     </g>
    </g>
    <g id="ytick_5">
     <g id="line2d_12">
      <g>
       <use style="stroke:#000000;stroke-width:0.8;" x="144" xlink:href="#m41de5f51bd" y="150.691718"/>
      </g>
     </g>
     <g id="text_13">
      <!-- 0.0 -->
      <g transform="translate(121.096875 154.490937)scale(0.1 -0.1)">
       <use xlink:href="#DejaVuSans-30"/>
       <use x="63.623047" xlink:href="#DejaVuSans-2e"/>
       <use x="95.410156" xlink:href="#DejaVuSans-30"/>
      </g>
     </g>
    </g>
    <g id="ytick_6">
     <g id="line2d_13">
      <g>
       <use style="stroke:#000000;stroke-width:0.8;" x="144" xlink:href="#m41de5f51bd" y="125.454046"/>
      </g>
     </g>
     <g id="text_14">
      <!-- 0.2 -->
      <g transform="translate(121.096875 129.253265)scale(0.1 -0.1)">
       <use xlink:href="#DejaVuSans-30"/>
       <use x="63.623047" xlink:href="#DejaVuSans-2e"/>
       <use x="95.410156" xlink:href="#DejaVuSans-32"/>
      </g>
     </g>
    </g>
    <g id="ytick_7">
     <g id="line2d_14">
      <g>
       <use style="stroke:#000000;stroke-width:0.8;" x="144" xlink:href="#m41de5f51bd" y="100.216374"/>
      </g>
     </g>
     <g id="text_15">
      <!-- 0.4 -->
      <g transform="translate(121.096875 104.015593)scale(0.1 -0.1)">
       <use xlink:href="#DejaVuSans-30"/>
       <use x="63.623047" xlink:href="#DejaVuSans-2e"/>
       <use x="95.410156" xlink:href="#DejaVuSans-34"/>
      </g>
     </g>
    </g>
    <g id="ytick_8">
     <g id="line2d_15">
      <g>
       <use style="stroke:#000000;stroke-width:0.8;" x="144" xlink:href="#m41de5f51bd" y="74.978702"/>
      </g>
     </g>
     <g id="text_16">
      <!-- 0.6 -->
      <g transform="translate(121.096875 78.777921)scale(0.1 -0.1)">
       <use xlink:href="#DejaVuSans-30"/>
       <use x="63.623047" xlink:href="#DejaVuSans-2e"/>
       <use x="95.410156" xlink:href="#DejaVuSans-36"/>
      </g>
     </g>
    </g>
    <g id="ytick_9">
     <g id="line2d_16">
      <g>
       <use style="stroke:#000000;stroke-width:0.8;" x="144" xlink:href="#m41de5f51bd" y="49.74103"/>
      </g>
     </g>
     <g id="text_17">
      <!-- 0.8 -->
      <g transform="translate(121.096875 53.540249)scale(0.1 -0.1)">
       <use xlink:href="#DejaVuSans-30"/>
       <use x="63.623047" xlink:href="#DejaVuSans-2e"/>
       <use x="95.410156" xlink:href="#DejaVuSans-38"/>
      </g>
     </g>
    </g>
    <g id="text_18">
     <!-- y -->
     <g transform="translate(106.6375 148.399375)rotate(-90)scale(0.1 -0.1)">
      <use xlink:href="#DejaVuSans-79"/>
     </g>
    </g>
   </g>
   <g id="line2d_17">
    <path clip-path="url(#p334263788a)" d="M 184.581818 179.007473 
L 187.126133 186.813863 
L 189.670447 189.350939 
L 192.214762 189.838838 
L 194.759077 182.813088 
L 197.303391 172.469622 
L 199.847706 164.370494 
L 202.392021 156.954424 
L 204.936335 151.002052 
L 207.48065 142.024705 
L 210.024964 134.901375 
L 212.569279 125.338548 
L 215.113594 119.093437 
L 217.657908 109.72577 
L 220.202223 99.284724 
L 222.746537 90.307377 
L 225.290852 77.426834 
L 227.835167 68.449487 
L 230.379481 56.837483 
L 232.923796 49.616573 
L 235.468111 48.543195 
L 238.012425 51.080271 
L 240.55674 57.422962 
L 243.101054 59.472139 
L 248.189684 73.42606 
L 250.733998 85.525963 
L 253.278313 100.162943 
L 255.822628 123.386951 
L 260.911257 178.031675 
L 263.455571 199.596825 
L 265.999886 205.744356 
L 268.544201 211.111249 
L 271.088515 213.453166 
L 273.63283 225.845808 
L 276.177144 236.482014 
L 278.721459 244.093243 
L 281.265774 244.385983 
L 283.810088 238.92151 
L 286.354403 235.408635 
L 288.898718 224.77243 
L 291.443032 218.917638 
L 293.987347 206.622575 
L 296.531661 196.571849 
L 299.075976 180.080852 
L 304.164605 145.53758 
L 306.70892 141.341646 
L 309.253235 145.44 
L 311.797549 150.514153 
L 314.341864 153.343969 
L 316.886178 146.318219 
L 319.430493 142.415024 
L 321.974808 143.390823 
L 324.519122 148.757715 
L 327.063437 154.514927 
L 332.152066 165.248712 
L 334.696381 171.201084 
L 337.240695 178.226834 
L 339.78501 180.861491 
L 342.329325 187.106602 
L 344.873639 191.400116 
L 347.417954 193.644453 
L 349.962268 188.277561 
L 355.050898 168.566428 
L 357.595212 161.052778 
L 360.139527 154.222188 
L 362.683842 144.073882 
L 365.228156 136.169913 
L 367.772471 125.240968 
L 370.316785 119.093437 
L 372.8611 110.701568 
L 375.405415 101.236321 
L 380.494044 79.573591 
L 383.038359 69.620445 
L 385.582673 57.422962 
L 388.126988 51.76333 
L 390.671302 44.64 
L 393.215617 48.835934 
L 395.759932 51.95849 
L 398.304246 56.447164 
L 400.848561 62.106796 
L 403.392875 69.034966 
L 408.481505 94.600891 
L 411.025819 112.848325 
L 413.570134 137.048132 
L 416.114449 164.955973 
L 418.658763 191.204956 
L 421.203078 205.158877 
L 423.747392 210.42819 
L 426.291707 215.404763 
L 428.836022 220.869235 
L 431.380336 235.408635 
L 433.924651 241.848906 
L 436.468966 245.264201 
L 439.01328 241.946486 
L 441.557595 237.652972 
L 446.646224 220.283756 
L 449.190539 209.257231 
L 451.734853 197.352488 
L 454.279168 186.033224 
L 456.823482 167.590629 
L 459.367797 150.709313 
L 461.912112 139.390048 
L 464.456426 142.024705 
L 467.000741 146.415799 
L 469.545056 151.977851 
L 472.08937 147.977076 
L 474.633685 142.707764 
L 477.177999 141.927125 
L 479.722314 145.24484 
L 482.266629 152.270591 
L 484.810943 157.247164 
L 487.355258 163.785015 
L 489.899573 169.054327 
L 492.443887 175.787338 
L 494.988202 180.080852 
L 497.532516 183.398567 
L 500.076831 189.155779 
L 502.621146 191.985595 
L 505.16546 191.985595 
L 507.709775 184.081626 
L 510.254089 172.762362 
L 512.798404 164.077754 
L 515.342719 156.856844 
L 522.975663 129.827222 
L 525.519977 122.215992 
L 528.064292 116.263621 
L 530.608606 105.529835 
L 533.152921 93.429932 
L 535.697236 83.281626 
L 538.24155 70.401084 
L 540.785865 63.082594 
L 543.33018 52.836709 
L 545.874494 48.152875 
L 548.418809 45.127899 
L 550.963123 50.787531 
L 553.507438 55.178625 
L 556.051753 58.398761 
L 558.596067 67.864008 
L 561.140382 75.767977 
L 563.684696 92.258974 
L 566.229011 103.968558 
L 568.773326 130.119961 
L 571.31764 153.929448 
L 573.861955 183.105828 
L 576.40627 200.962943 
L 581.494899 214.819284 
L 584.039213 216.087822 
L 586.583528 229.358683 
L 589.127843 235.603795 
L 591.672157 243.995663 
L 596.760787 238.82393 
L 599.305101 231.79818 
L 601.849416 221.747454 
L 604.39373 213.941065 
L 606.938045 200.084724 
L 609.48236 189.936418 
L 612.026674 171.591404 
L 614.570989 155.295566 
L 617.115304 141.146486 
L 619.659618 138.706989 
L 622.203933 143.683562 
L 624.748247 149.245615 
L 627.292562 149.635934 
L 629.836877 144.561781 
L 632.381191 144.464201 
L 634.925506 143.195663 
L 637.46982 149.733514 
L 640.014135 153.734288 
L 642.55845 160.760039 
L 645.102764 165.443872 
L 647.647079 172.664782 
L 650.191394 178.519574 
L 652.735708 181.34939 
L 655.280023 189.058199 
L 657.824337 192.375915 
L 660.368652 192.668654 
L 662.912967 187.692081 
L 665.457281 177.348616 
L 668.001596 167.980949 
L 670.545911 160.272139 
L 673.090225 151.782691 
L 675.63454 140.951326 
L 678.178854 133.925576 
L 680.723169 124.16759 
L 683.267484 119.093437 
L 685.811798 110.799148 
L 688.356113 100.065363 
L 693.444742 75.182498 
L 695.989057 64.448712 
L 698.533371 56.544743 
L 701.077686 50.689952 
L 703.622001 48.055295 
L 706.166315 49.616573 
L 708.71063 53.910087 
L 711.254944 57.422962 
L 713.799259 64.351133 
L 716.343574 72.938161 
L 718.887888 85.135644 
L 721.432203 101.724221 
L 723.976518 121.728093 
L 726.520832 146.903698 
L 729.065147 174.22606 
L 731.609461 199.011346 
L 734.153776 207.305634 
L 736.698091 216.087822 
L 739.242405 218.722478 
L 741.78672 226.236128 
L 744.331034 237.457812 
L 746.875349 243.019864 
L 749.419664 245.069042 
L 754.508293 236.482014 
L 757.052608 225.065169 
L 759.596922 215.599923 
L 762.141237 202.91454 
L 764.685551 191.595276 
L 767.229866 177.738935 
L 769.774181 160.662459 
L 772.318495 145.53758 
L 774.86281 138.902149 
L 777.407125 141.731965 
L 779.951439 146.610958 
L 782.495754 150.221413 
L 785.040068 146.708538 
L 787.584383 144.464201 
L 790.128698 144.464201 
L 792.673012 147.684337 
L 795.217327 154.514927 
L 797.761641 158.418122 
L 800.305956 164.663233 
L 802.850271 170.030126 
L 805.394585 178.617154 
L 807.9389 182.227609 
L 810.483215 189.058199 
L 813.027529 192.766234 
L 815.571844 193.839613 
L 818.116158 190.814637 
L 820.660473 182.130029 
L 823.204788 172.469622 
L 825.749102 163.297115 
L 828.293417 155.100407 
L 830.837732 145.049681 
L 835.926361 127.680465 
L 838.470675 119.776496 
L 841.01499 113.628964 
L 843.559305 102.700019 
L 846.103619 92.454134 
L 848.647934 81.134869 
L 851.192249 68.937386 
L 853.736563 59.37456 
L 856.280878 50.592372 
L 858.825192 45.713379 
L 861.369507 46.591597 
L 863.913822 50.202052 
L 866.458136 54.885886 
L 869.002451 62.692275 
L 871.546765 68.839806 
L 874.09108 81.525189 
L 876.635395 94.99121 
L 879.179709 113.043485 
L 881.724024 138.12151 
L 884.268339 164.370494 
L 886.812653 192.766234 
L 889.356968 203.890339 
L 891.901282 212.087047 
L 894.445597 215.990242 
L 896.989912 222.528093 
L 899.534226 234.627996 
L 902.078541 242.141646 
L 904.622856 246.24 
L 907.16717 241.361007 
L 909.711485 237.067493 
L 912.255799 227.894985 
L 914.800114 217.74668 
L 917.344429 209.257231 
L 919.888743 195.79121 
L 922.433058 184.179206 
L 924.977372 166.029351 
L 927.521687 149.440774 
L 930.066002 138.41425 
L 932.610316 140.561007 
L 935.154631 145.73274 
L 937.698946 150.514153 
L 940.24326 147.977076 
L 942.787575 141.634385 
L 945.331889 140.365847 
L 947.876204 143.585983 
L 950.420519 150.221413 
L 952.964833 155.783466 
L 955.509148 162.418896 
L 958.053463 166.90757 
L 960.597777 174.32364 
L 963.142092 178.324414 
L 965.686406 181.837289 
L 968.230721 189.936418 
L 970.775036 191.595276 
L 973.31935 191.400116 
L 975.863665 183.300987 
L 978.407979 172.469622 
L 980.952294 163.492275 
L 983.496609 155.978625 
L 991.129553 129.436902 
L 993.673867 121.142614 
L 996.218182 111.774947 
L 996.218182 111.774947 
" style="fill:none;stroke:#1f77b4;stroke-linecap:square;stroke-width:1.5;"/>
   </g>
   <g id="patch_3">
    <path d="M 144 256.32 
L 144 34.56 
" style="fill:none;stroke:#000000;stroke-linecap:square;stroke-linejoin:miter;stroke-width:0.8;"/>
   </g>
   <g id="patch_4">
    <path d="M 1036.8 256.32 
L 1036.8 34.56 
" style="fill:none;stroke:#000000;stroke-linecap:square;stroke-linejoin:miter;stroke-width:0.8;"/>
   </g>
   <g id="patch_5">
    <path d="M 144 256.32 
L 1036.8 256.32 
" style="fill:none;stroke:#000000;stroke-linecap:square;stroke-linejoin:miter;stroke-width:0.8;"/>
   </g>
   <g id="patch_6">
    <path d="M 144 34.56 
L 1036.8 34.56 
" style="fill:none;stroke:#000000;stroke-linecap:square;stroke-linejoin:miter;stroke-width:0.8;"/>
   </g>
   <g id="text_19">
    <!-- ramec 55 signalu bez rousky -->
    <g transform="translate(504.219375 28.56)scale(0.12 -0.12)">
     <defs>
      <path d="M 2194 1759 
Q 1497 1759 1228 1600 
Q 959 1441 959 1056 
Q 959 750 1161 570 
Q 1363 391 1709 391 
Q 2188 391 2477 730 
Q 2766 1069 2766 1631 
L 2766 1759 
L 2194 1759 
z
M 3341 1997 
L 3341 0 
L 2766 0 
L 2766 531 
Q 2569 213 2275 61 
Q 1981 -91 1556 -91 
Q 1019 -91 701 211 
Q 384 513 384 1019 
Q 384 1609 779 1909 
Q 1175 2209 1959 2209 
L 2766 2209 
L 2766 2266 
Q 2766 2663 2505 2880 
Q 2244 3097 1772 3097 
Q 1472 3097 1187 3025 
Q 903 2953 641 2809 
L 641 3341 
Q 956 3463 1253 3523 
Q 1550 3584 1831 3584 
Q 2591 3584 2966 3190 
Q 3341 2797 3341 1997 
z
" id="DejaVuSans-61" transform="scale(0.015625)"/>
      <path d="M 3328 2828 
Q 3544 3216 3844 3400 
Q 4144 3584 4550 3584 
Q 5097 3584 5394 3201 
Q 5691 2819 5691 2113 
L 5691 0 
L 5113 0 
L 5113 2094 
Q 5113 2597 4934 2840 
Q 4756 3084 4391 3084 
Q 3944 3084 3684 2787 
Q 3425 2491 3425 1978 
L 3425 0 
L 2847 0 
L 2847 2094 
Q 2847 2600 2669 2842 
Q 2491 3084 2119 3084 
Q 1678 3084 1418 2786 
Q 1159 2488 1159 1978 
L 1159 0 
L 581 0 
L 581 3500 
L 1159 3500 
L 1159 2956 
Q 1356 3278 1631 3431 
Q 1906 3584 2284 3584 
Q 2666 3584 2933 3390 
Q 3200 3197 3328 2828 
z
" id="DejaVuSans-6d" transform="scale(0.015625)"/>
      <path d="M 3597 1894 
L 3597 1613 
L 953 1613 
Q 991 1019 1311 708 
Q 1631 397 2203 397 
Q 2534 397 2845 478 
Q 3156 559 3463 722 
L 3463 178 
Q 3153 47 2828 -22 
Q 2503 -91 2169 -91 
Q 1331 -91 842 396 
Q 353 884 353 1716 
Q 353 2575 817 3079 
Q 1281 3584 2069 3584 
Q 2775 3584 3186 3129 
Q 3597 2675 3597 1894 
z
M 3022 2063 
Q 3016 2534 2758 2815 
Q 2500 3097 2075 3097 
Q 1594 3097 1305 2825 
Q 1016 2553 972 2059 
L 3022 2063 
z
" id="DejaVuSans-65" transform="scale(0.015625)"/>
      <path d="M 3122 3366 
L 3122 2828 
Q 2878 2963 2633 3030 
Q 2388 3097 2138 3097 
Q 1578 3097 1268 2742 
Q 959 2388 959 1747 
Q 959 1106 1268 751 
Q 1578 397 2138 397 
Q 2388 397 2633 464 
Q 2878 531 3122 666 
L 3122 134 
Q 2881 22 2623 -34 
Q 2366 -91 2075 -91 
Q 1284 -91 818 406 
Q 353 903 353 1747 
Q 353 2603 823 3093 
Q 1294 3584 2113 3584 
Q 2378 3584 2631 3529 
Q 2884 3475 3122 3366 
z
" id="DejaVuSans-63" transform="scale(0.015625)"/>
      <path id="DejaVuSans-20" transform="scale(0.015625)"/>
      <path d="M 2834 3397 
L 2834 2853 
Q 2591 2978 2328 3040 
Q 2066 3103 1784 3103 
Q 1356 3103 1142 2972 
Q 928 2841 928 2578 
Q 928 2378 1081 2264 
Q 1234 2150 1697 2047 
L 1894 2003 
Q 2506 1872 2764 1633 
Q 3022 1394 3022 966 
Q 3022 478 2636 193 
Q 2250 -91 1575 -91 
Q 1294 -91 989 -36 
Q 684 19 347 128 
L 347 722 
Q 666 556 975 473 
Q 1284 391 1588 391 
Q 1994 391 2212 530 
Q 2431 669 2431 922 
Q 2431 1156 2273 1281 
Q 2116 1406 1581 1522 
L 1381 1569 
Q 847 1681 609 1914 
Q 372 2147 372 2553 
Q 372 3047 722 3315 
Q 1072 3584 1716 3584 
Q 2034 3584 2315 3537 
Q 2597 3491 2834 3397 
z
" id="DejaVuSans-73" transform="scale(0.015625)"/>
      <path d="M 603 3500 
L 1178 3500 
L 1178 0 
L 603 0 
L 603 3500 
z
M 603 4863 
L 1178 4863 
L 1178 4134 
L 603 4134 
L 603 4863 
z
" id="DejaVuSans-69" transform="scale(0.015625)"/>
      <path d="M 2906 1791 
Q 2906 2416 2648 2759 
Q 2391 3103 1925 3103 
Q 1463 3103 1205 2759 
Q 947 2416 947 1791 
Q 947 1169 1205 825 
Q 1463 481 1925 481 
Q 2391 481 2648 825 
Q 2906 1169 2906 1791 
z
M 3481 434 
Q 3481 -459 3084 -895 
Q 2688 -1331 1869 -1331 
Q 1566 -1331 1297 -1286 
Q 1028 -1241 775 -1147 
L 775 -588 
Q 1028 -725 1275 -790 
Q 1522 -856 1778 -856 
Q 2344 -856 2625 -561 
Q 2906 -266 2906 331 
L 2906 616 
Q 2728 306 2450 153 
Q 2172 0 1784 0 
Q 1141 0 747 490 
Q 353 981 353 1791 
Q 353 2603 747 3093 
Q 1141 3584 1784 3584 
Q 2172 3584 2450 3431 
Q 2728 3278 2906 2969 
L 2906 3500 
L 3481 3500 
L 3481 434 
z
" id="DejaVuSans-67" transform="scale(0.015625)"/>
      <path d="M 3513 2113 
L 3513 0 
L 2938 0 
L 2938 2094 
Q 2938 2591 2744 2837 
Q 2550 3084 2163 3084 
Q 1697 3084 1428 2787 
Q 1159 2491 1159 1978 
L 1159 0 
L 581 0 
L 581 3500 
L 1159 3500 
L 1159 2956 
Q 1366 3272 1645 3428 
Q 1925 3584 2291 3584 
Q 2894 3584 3203 3211 
Q 3513 2838 3513 2113 
z
" id="DejaVuSans-6e" transform="scale(0.015625)"/>
      <path d="M 603 4863 
L 1178 4863 
L 1178 0 
L 603 0 
L 603 4863 
z
" id="DejaVuSans-6c" transform="scale(0.015625)"/>
      <path d="M 544 1381 
L 544 3500 
L 1119 3500 
L 1119 1403 
Q 1119 906 1312 657 
Q 1506 409 1894 409 
Q 2359 409 2629 706 
Q 2900 1003 2900 1516 
L 2900 3500 
L 3475 3500 
L 3475 0 
L 2900 0 
L 2900 538 
Q 2691 219 2414 64 
Q 2138 -91 1772 -91 
Q 1169 -91 856 284 
Q 544 659 544 1381 
z
M 1991 3584 
L 1991 3584 
z
" id="DejaVuSans-75" transform="scale(0.015625)"/>
      <path d="M 3116 1747 
Q 3116 2381 2855 2742 
Q 2594 3103 2138 3103 
Q 1681 3103 1420 2742 
Q 1159 2381 1159 1747 
Q 1159 1113 1420 752 
Q 1681 391 2138 391 
Q 2594 391 2855 752 
Q 3116 1113 3116 1747 
z
M 1159 2969 
Q 1341 3281 1617 3432 
Q 1894 3584 2278 3584 
Q 2916 3584 3314 3078 
Q 3713 2572 3713 1747 
Q 3713 922 3314 415 
Q 2916 -91 2278 -91 
Q 1894 -91 1617 61 
Q 1341 213 1159 525 
L 1159 0 
L 581 0 
L 581 4863 
L 1159 4863 
L 1159 2969 
z
" id="DejaVuSans-62" transform="scale(0.015625)"/>
     </defs>
     <use xlink:href="#DejaVuSans-72"/>
     <use x="41.113281" xlink:href="#DejaVuSans-61"/>
     <use x="102.392578" xlink:href="#DejaVuSans-6d"/>
     <use x="199.804688" xlink:href="#DejaVuSans-65"/>
     <use x="261.328125" xlink:href="#DejaVuSans-63"/>
     <use x="316.308594" xlink:href="#DejaVuSans-20"/>
     <use x="348.095703" xlink:href="#DejaVuSans-35"/>
     <use x="411.71875" xlink:href="#DejaVuSans-35"/>
     <use x="475.341797" xlink:href="#DejaVuSans-20"/>
     <use x="507.128906" xlink:href="#DejaVuSans-73"/>
     <use x="559.228516" xlink:href="#DejaVuSans-69"/>
     <use x="587.011719" xlink:href="#DejaVuSans-67"/>
     <use x="650.488281" xlink:href="#DejaVuSans-6e"/>
     <use x="713.867188" xlink:href="#DejaVuSans-61"/>
     <use x="775.146484" xlink:href="#DejaVuSans-6c"/>
     <use x="802.929688" xlink:href="#DejaVuSans-75"/>
     <use x="866.308594" xlink:href="#DejaVuSans-20"/>
     <use x="898.095703" xlink:href="#DejaVuSans-62"/>
     <use x="961.572266" xlink:href="#DejaVuSans-65"/>
     <use x="1023.095703" xlink:href="#DejaVuSans-7a"/>
     <use x="1075.585938" xlink:href="#DejaVuSans-20"/>
     <use x="1107.373047" xlink:href="#DejaVuSans-72"/>
     <use x="1146.236328" xlink:href="#DejaVuSans-6f"/>
     <use x="1207.417969" xlink:href="#DejaVuSans-75"/>
     <use x="1270.796875" xlink:href="#DejaVuSans-73"/>
     <use x="1322.896484" xlink:href="#DejaVuSans-6b"/>
     <use x="1377.181641" xlink:href="#DejaVuSans-79"/>
    </g>
   </g>
  </g>
 </g>
 <defs>
  <clipPath id="p334263788a">
   <rect height="221.76" width="892.8" x="144" y="34.56"/>
  </clipPath>
 </defs>
</svg>
