<?xml version="1.0" encoding="utf-8" standalone="no"?>
<!DOCTYPE svg PUBLIC "-//W3C//DTD SVG 1.1//EN"
  "http://www.w3.org/Graphics/SVG/1.1/DTD/svg11.dtd">
<svg height="288pt" version="1.1" viewBox="0 0 576 288" width="576pt" xmlns="http://www.w3.org/2000/svg" xmlns:xlink="http://www.w3.org/1999/xlink">
 <metadata>
  <rdf:RDF xmlns:cc="http://creativecommons.org/ns#" xmlns:dc="http://purl.org/dc/elements/1.1/" xmlns:rdf="http://www.w3.org/1999/02/22-rdf-syntax-ns#">
   <cc:Work>
    <dc:type rdf:resource="http://purl.org/dc/dcmitype/StillImage"/>
    <dc:date>2021-09-09T14:47:19.855773</dc:date>
    <dc:format>image/svg+xml</dc:format>
    <dc:creator>
     <cc:Agent>
      <dc:title>Matplotlib v3.4.3, https://matplotlib.org/</dc:title>
     </cc:Agent>
    </dc:creator>
   </cc:Work>
  </rdf:RDF>
 </metadata>
 <defs>
  <style type="text/css">*{stroke-linecap:butt;stroke-linejoin:round;}</style>
 </defs>
 <g id="figure_1">
  <g id="patch_1">
   <path d="M 0 288 
L 576 288 
L 576 0 
L 0 0 
z
" style="fill:#ffffff;"/>
  </g>
  <g id="axes_1">
   <g id="patch_2">
    <path d="M 72 256.32 
L 518.4 256.32 
L 518.4 34.56 
L 72 34.56 
z
" style="fill:#ffffff;"/>
   </g>
   <g id="matplotlib.axis_1">
    <g id="xtick_1">
     <g id="line2d_1">
      <defs>
       <path d="M 0 0 
L 0 3.5 
" id="m685bf6c6d2" style="stroke:#000000;stroke-width:0.8;"/>
      </defs>
      <g>
       <use style="stroke:#000000;stroke-width:0.8;" x="92.290909" xlink:href="#m685bf6c6d2" y="256.32"/>
      </g>
     </g>
     <g id="text_1">
      <!-- 0 -->
      <g transform="translate(89.109659 270.918437)scale(0.1 -0.1)">
       <defs>
        <path d="M 2034 4250 
Q 1547 4250 1301 3770 
Q 1056 3291 1056 2328 
Q 1056 1369 1301 889 
Q 1547 409 2034 409 
Q 2525 409 2770 889 
Q 3016 1369 3016 2328 
Q 3016 3291 2770 3770 
Q 2525 4250 2034 4250 
z
M 2034 4750 
Q 2819 4750 3233 4129 
Q 3647 3509 3647 2328 
Q 3647 1150 3233 529 
Q 2819 -91 2034 -91 
Q 1250 -91 836 529 
Q 422 1150 422 2328 
Q 422 3509 836 4129 
Q 1250 4750 2034 4750 
z
" id="DejaVuSans-30" transform="scale(0.015625)"/>
       </defs>
       <use xlink:href="#DejaVuSans-30"/>
      </g>
     </g>
    </g>
    <g id="xtick_2">
     <g id="line2d_2">
      <g>
       <use style="stroke:#000000;stroke-width:0.8;" x="171.707383" xlink:href="#m685bf6c6d2" y="256.32"/>
      </g>
     </g>
     <g id="text_2">
      <!-- 100 -->
      <g transform="translate(162.163633 270.918437)scale(0.1 -0.1)">
       <defs>
        <path d="M 794 531 
L 1825 531 
L 1825 4091 
L 703 3866 
L 703 4441 
L 1819 4666 
L 2450 4666 
L 2450 531 
L 3481 531 
L 3481 0 
L 794 0 
L 794 531 
z
" id="DejaVuSans-31" transform="scale(0.015625)"/>
       </defs>
       <use xlink:href="#DejaVuSans-31"/>
       <use x="63.623047" xlink:href="#DejaVuSans-30"/>
       <use x="127.246094" xlink:href="#DejaVuSans-30"/>
      </g>
     </g>
    </g>
    <g id="xtick_3">
     <g id="line2d_3">
      <g>
       <use style="stroke:#000000;stroke-width:0.8;" x="251.123857" xlink:href="#m685bf6c6d2" y="256.32"/>
      </g>
     </g>
     <g id="text_3">
      <!-- 200 -->
      <g transform="translate(241.580107 270.918437)scale(0.1 -0.1)">
       <defs>
        <path d="M 1228 531 
L 3431 531 
L 3431 0 
L 469 0 
L 469 531 
Q 828 903 1448 1529 
Q 2069 2156 2228 2338 
Q 2531 2678 2651 2914 
Q 2772 3150 2772 3378 
Q 2772 3750 2511 3984 
Q 2250 4219 1831 4219 
Q 1534 4219 1204 4116 
Q 875 4013 500 3803 
L 500 4441 
Q 881 4594 1212 4672 
Q 1544 4750 1819 4750 
Q 2544 4750 2975 4387 
Q 3406 4025 3406 3419 
Q 3406 3131 3298 2873 
Q 3191 2616 2906 2266 
Q 2828 2175 2409 1742 
Q 1991 1309 1228 531 
z
" id="DejaVuSans-32" transform="scale(0.015625)"/>
       </defs>
       <use xlink:href="#DejaVuSans-32"/>
       <use x="63.623047" xlink:href="#DejaVuSans-30"/>
       <use x="127.246094" xlink:href="#DejaVuSans-30"/>
      </g>
     </g>
    </g>
    <g id="xtick_4">
     <g id="line2d_4">
      <g>
       <use style="stroke:#000000;stroke-width:0.8;" x="330.540331" xlink:href="#m685bf6c6d2" y="256.32"/>
      </g>
     </g>
     <g id="text_4">
      <!-- 300 -->
      <g transform="translate(320.996581 270.918437)scale(0.1 -0.1)">
       <defs>
        <path d="M 2597 2516 
Q 3050 2419 3304 2112 
Q 3559 1806 3559 1356 
Q 3559 666 3084 287 
Q 2609 -91 1734 -91 
Q 1441 -91 1130 -33 
Q 819 25 488 141 
L 488 750 
Q 750 597 1062 519 
Q 1375 441 1716 441 
Q 2309 441 2620 675 
Q 2931 909 2931 1356 
Q 2931 1769 2642 2001 
Q 2353 2234 1838 2234 
L 1294 2234 
L 1294 2753 
L 1863 2753 
Q 2328 2753 2575 2939 
Q 2822 3125 2822 3475 
Q 2822 3834 2567 4026 
Q 2313 4219 1838 4219 
Q 1578 4219 1281 4162 
Q 984 4106 628 3988 
L 628 4550 
Q 988 4650 1302 4700 
Q 1616 4750 1894 4750 
Q 2613 4750 3031 4423 
Q 3450 4097 3450 3541 
Q 3450 3153 3228 2886 
Q 3006 2619 2597 2516 
z
" id="DejaVuSans-33" transform="scale(0.015625)"/>
       </defs>
       <use xlink:href="#DejaVuSans-33"/>
       <use x="63.623047" xlink:href="#DejaVuSans-30"/>
       <use x="127.246094" xlink:href="#DejaVuSans-30"/>
      </g>
     </g>
    </g>
    <g id="xtick_5">
     <g id="line2d_5">
      <g>
       <use style="stroke:#000000;stroke-width:0.8;" x="409.956805" xlink:href="#m685bf6c6d2" y="256.32"/>
      </g>
     </g>
     <g id="text_5">
      <!-- 400 -->
      <g transform="translate(400.413055 270.918437)scale(0.1 -0.1)">
       <defs>
        <path d="M 2419 4116 
L 825 1625 
L 2419 1625 
L 2419 4116 
z
M 2253 4666 
L 3047 4666 
L 3047 1625 
L 3713 1625 
L 3713 1100 
L 3047 1100 
L 3047 0 
L 2419 0 
L 2419 1100 
L 313 1100 
L 313 1709 
L 2253 4666 
z
" id="DejaVuSans-34" transform="scale(0.015625)"/>
       </defs>
       <use xlink:href="#DejaVuSans-34"/>
       <use x="63.623047" xlink:href="#DejaVuSans-30"/>
       <use x="127.246094" xlink:href="#DejaVuSans-30"/>
      </g>
     </g>
    </g>
    <g id="xtick_6">
     <g id="line2d_6">
      <g>
       <use style="stroke:#000000;stroke-width:0.8;" x="489.373279" xlink:href="#m685bf6c6d2" y="256.32"/>
      </g>
     </g>
     <g id="text_6">
      <!-- 500 -->
      <g transform="translate(479.829529 270.918437)scale(0.1 -0.1)">
       <defs>
        <path d="M 691 4666 
L 3169 4666 
L 3169 4134 
L 1269 4134 
L 1269 2991 
Q 1406 3038 1543 3061 
Q 1681 3084 1819 3084 
Q 2600 3084 3056 2656 
Q 3513 2228 3513 1497 
Q 3513 744 3044 326 
Q 2575 -91 1722 -91 
Q 1428 -91 1123 -41 
Q 819 9 494 109 
L 494 744 
Q 775 591 1075 516 
Q 1375 441 1709 441 
Q 2250 441 2565 725 
Q 2881 1009 2881 1497 
Q 2881 1984 2565 2268 
Q 2250 2553 1709 2553 
Q 1456 2553 1204 2497 
Q 953 2441 691 2322 
L 691 4666 
z
" id="DejaVuSans-35" transform="scale(0.015625)"/>
       </defs>
       <use xlink:href="#DejaVuSans-35"/>
       <use x="63.623047" xlink:href="#DejaVuSans-30"/>
       <use x="127.246094" xlink:href="#DejaVuSans-30"/>
      </g>
     </g>
    </g>
    <g id="text_7">
     <!-- n -->
     <g transform="translate(292.03125 284.596563)scale(0.1 -0.1)">
      <defs>
       <path d="M 3513 2113 
L 3513 0 
L 2938 0 
L 2938 2094 
Q 2938 2591 2744 2837 
Q 2550 3084 2163 3084 
Q 1697 3084 1428 2787 
Q 1159 2491 1159 1978 
L 1159 0 
L 581 0 
L 581 3500 
L 1159 3500 
L 1159 2956 
Q 1366 3272 1645 3428 
Q 1925 3584 2291 3584 
Q 2894 3584 3203 3211 
Q 3513 2838 3513 2113 
z
" id="DejaVuSans-6e" transform="scale(0.015625)"/>
      </defs>
      <use xlink:href="#DejaVuSans-6e"/>
     </g>
    </g>
   </g>
   <g id="matplotlib.axis_2">
    <g id="ytick_1">
     <g id="line2d_7">
      <defs>
       <path d="M 0 0 
L -3.5 0 
" id="me74887e3ae" style="stroke:#000000;stroke-width:0.8;"/>
      </defs>
      <g>
       <use style="stroke:#000000;stroke-width:0.8;" x="72" xlink:href="#me74887e3ae" y="236.920745"/>
      </g>
     </g>
     <g id="text_8">
      <!-- 0.0 -->
      <g transform="translate(49.096875 240.719964)scale(0.1 -0.1)">
       <defs>
        <path d="M 684 794 
L 1344 794 
L 1344 0 
L 684 0 
L 684 794 
z
" id="DejaVuSans-2e" transform="scale(0.015625)"/>
       </defs>
       <use xlink:href="#DejaVuSans-30"/>
       <use x="63.623047" xlink:href="#DejaVuSans-2e"/>
       <use x="95.410156" xlink:href="#DejaVuSans-30"/>
      </g>
     </g>
    </g>
    <g id="ytick_2">
     <g id="line2d_8">
      <g>
       <use style="stroke:#000000;stroke-width:0.8;" x="72" xlink:href="#me74887e3ae" y="210.824051"/>
      </g>
     </g>
     <g id="text_9">
      <!-- 0.2 -->
      <g transform="translate(49.096875 214.623269)scale(0.1 -0.1)">
       <use xlink:href="#DejaVuSans-30"/>
       <use x="63.623047" xlink:href="#DejaVuSans-2e"/>
       <use x="95.410156" xlink:href="#DejaVuSans-32"/>
      </g>
     </g>
    </g>
    <g id="ytick_3">
     <g id="line2d_9">
      <g>
       <use style="stroke:#000000;stroke-width:0.8;" x="72" xlink:href="#me74887e3ae" y="184.727357"/>
      </g>
     </g>
     <g id="text_10">
      <!-- 0.4 -->
      <g transform="translate(49.096875 188.526575)scale(0.1 -0.1)">
       <use xlink:href="#DejaVuSans-30"/>
       <use x="63.623047" xlink:href="#DejaVuSans-2e"/>
       <use x="95.410156" xlink:href="#DejaVuSans-34"/>
      </g>
     </g>
    </g>
    <g id="ytick_4">
     <g id="line2d_10">
      <g>
       <use style="stroke:#000000;stroke-width:0.8;" x="72" xlink:href="#me74887e3ae" y="158.630662"/>
      </g>
     </g>
     <g id="text_11">
      <!-- 0.6 -->
      <g transform="translate(49.096875 162.429881)scale(0.1 -0.1)">
       <defs>
        <path d="M 2113 2584 
Q 1688 2584 1439 2293 
Q 1191 2003 1191 1497 
Q 1191 994 1439 701 
Q 1688 409 2113 409 
Q 2538 409 2786 701 
Q 3034 994 3034 1497 
Q 3034 2003 2786 2293 
Q 2538 2584 2113 2584 
z
M 3366 4563 
L 3366 3988 
Q 3128 4100 2886 4159 
Q 2644 4219 2406 4219 
Q 1781 4219 1451 3797 
Q 1122 3375 1075 2522 
Q 1259 2794 1537 2939 
Q 1816 3084 2150 3084 
Q 2853 3084 3261 2657 
Q 3669 2231 3669 1497 
Q 3669 778 3244 343 
Q 2819 -91 2113 -91 
Q 1303 -91 875 529 
Q 447 1150 447 2328 
Q 447 3434 972 4092 
Q 1497 4750 2381 4750 
Q 2619 4750 2861 4703 
Q 3103 4656 3366 4563 
z
" id="DejaVuSans-36" transform="scale(0.015625)"/>
       </defs>
       <use xlink:href="#DejaVuSans-30"/>
       <use x="63.623047" xlink:href="#DejaVuSans-2e"/>
       <use x="95.410156" xlink:href="#DejaVuSans-36"/>
      </g>
     </g>
    </g>
    <g id="ytick_5">
     <g id="line2d_11">
      <g>
       <use style="stroke:#000000;stroke-width:0.8;" x="72" xlink:href="#me74887e3ae" y="132.533968"/>
      </g>
     </g>
     <g id="text_12">
      <!-- 0.8 -->
      <g transform="translate(49.096875 136.333187)scale(0.1 -0.1)">
       <defs>
        <path d="M 2034 2216 
Q 1584 2216 1326 1975 
Q 1069 1734 1069 1313 
Q 1069 891 1326 650 
Q 1584 409 2034 409 
Q 2484 409 2743 651 
Q 3003 894 3003 1313 
Q 3003 1734 2745 1975 
Q 2488 2216 2034 2216 
z
M 1403 2484 
Q 997 2584 770 2862 
Q 544 3141 544 3541 
Q 544 4100 942 4425 
Q 1341 4750 2034 4750 
Q 2731 4750 3128 4425 
Q 3525 4100 3525 3541 
Q 3525 3141 3298 2862 
Q 3072 2584 2669 2484 
Q 3125 2378 3379 2068 
Q 3634 1759 3634 1313 
Q 3634 634 3220 271 
Q 2806 -91 2034 -91 
Q 1263 -91 848 271 
Q 434 634 434 1313 
Q 434 1759 690 2068 
Q 947 2378 1403 2484 
z
M 1172 3481 
Q 1172 3119 1398 2916 
Q 1625 2713 2034 2713 
Q 2441 2713 2670 2916 
Q 2900 3119 2900 3481 
Q 2900 3844 2670 4047 
Q 2441 4250 2034 4250 
Q 1625 4250 1398 4047 
Q 1172 3844 1172 3481 
z
" id="DejaVuSans-38" transform="scale(0.015625)"/>
       </defs>
       <use xlink:href="#DejaVuSans-30"/>
       <use x="63.623047" xlink:href="#DejaVuSans-2e"/>
       <use x="95.410156" xlink:href="#DejaVuSans-38"/>
      </g>
     </g>
    </g>
    <g id="ytick_6">
     <g id="line2d_12">
      <g>
       <use style="stroke:#000000;stroke-width:0.8;" x="72" xlink:href="#me74887e3ae" y="106.437274"/>
      </g>
     </g>
     <g id="text_13">
      <!-- 1.0 -->
      <g transform="translate(49.096875 110.236493)scale(0.1 -0.1)">
       <use xlink:href="#DejaVuSans-31"/>
       <use x="63.623047" xlink:href="#DejaVuSans-2e"/>
       <use x="95.410156" xlink:href="#DejaVuSans-30"/>
      </g>
     </g>
    </g>
    <g id="ytick_7">
     <g id="line2d_13">
      <g>
       <use style="stroke:#000000;stroke-width:0.8;" x="72" xlink:href="#me74887e3ae" y="80.34058"/>
      </g>
     </g>
     <g id="text_14">
      <!-- 1.2 -->
      <g transform="translate(49.096875 84.139799)scale(0.1 -0.1)">
       <use xlink:href="#DejaVuSans-31"/>
       <use x="63.623047" xlink:href="#DejaVuSans-2e"/>
       <use x="95.410156" xlink:href="#DejaVuSans-32"/>
      </g>
     </g>
    </g>
    <g id="ytick_8">
     <g id="line2d_14">
      <g>
       <use style="stroke:#000000;stroke-width:0.8;" x="72" xlink:href="#me74887e3ae" y="54.243886"/>
      </g>
     </g>
     <g id="text_15">
      <!-- 1.4 -->
      <g transform="translate(49.096875 58.043105)scale(0.1 -0.1)">
       <use xlink:href="#DejaVuSans-31"/>
       <use x="63.623047" xlink:href="#DejaVuSans-2e"/>
       <use x="95.410156" xlink:href="#DejaVuSans-34"/>
      </g>
     </g>
    </g>
    <g id="text_16">
     <!-- h[n] -->
     <g transform="translate(43.017187 155.679062)rotate(-90)scale(0.1 -0.1)">
      <defs>
       <path d="M 3513 2113 
L 3513 0 
L 2938 0 
L 2938 2094 
Q 2938 2591 2744 2837 
Q 2550 3084 2163 3084 
Q 1697 3084 1428 2787 
Q 1159 2491 1159 1978 
L 1159 0 
L 581 0 
L 581 4863 
L 1159 4863 
L 1159 2956 
Q 1366 3272 1645 3428 
Q 1925 3584 2291 3584 
Q 2894 3584 3203 3211 
Q 3513 2838 3513 2113 
z
" id="DejaVuSans-68" transform="scale(0.015625)"/>
       <path d="M 550 4863 
L 1875 4863 
L 1875 4416 
L 1125 4416 
L 1125 -397 
L 1875 -397 
L 1875 -844 
L 550 -844 
L 550 4863 
z
" id="DejaVuSans-5b" transform="scale(0.015625)"/>
       <path d="M 1947 4863 
L 1947 -844 
L 622 -844 
L 622 -397 
L 1369 -397 
L 1369 4416 
L 622 4416 
L 622 4863 
L 1947 4863 
z
" id="DejaVuSans-5d" transform="scale(0.015625)"/>
      </defs>
      <use xlink:href="#DejaVuSans-68"/>
      <use x="63.378906" xlink:href="#DejaVuSans-5b"/>
      <use x="102.392578" xlink:href="#DejaVuSans-6e"/>
      <use x="165.771484" xlink:href="#DejaVuSans-5d"/>
     </g>
    </g>
   </g>
   <g id="line2d_15">
    <path clip-path="url(#p743dafd578)" d="M 92.290909 44.64 
L 93.085074 246.24 
L 94.673403 234.019948 
L 95.467568 233.77551 
L 96.261733 240.484517 
L 97.055898 239.414206 
L 97.850062 236.793463 
L 98.644227 231.112692 
L 99.438392 236.989255 
L 100.232556 231.668801 
L 101.820886 230.976624 
L 102.615051 234.63537 
L 103.409215 236.158065 
L 104.20338 235.842765 
L 104.997545 233.266266 
L 105.79171 232.820806 
L 106.585874 238.8181 
L 107.380039 233.950971 
L 108.174204 236.119234 
L 108.968369 233.760545 
L 109.762533 235.276033 
L 110.556698 235.337561 
L 111.350863 237.817398 
L 112.145028 237.697967 
L 112.939192 238.76111 
L 113.733357 235.101353 
L 114.527522 235.315055 
L 115.321687 236.144383 
L 116.115851 235.42887 
L 116.910016 232.154517 
L 117.704181 236.150925 
L 118.498345 236.68243 
L 119.29251 237.83028 
L 120.88084 236.412301 
L 121.675004 237.983473 
L 122.469169 237.976504 
L 123.263334 234.303033 
L 124.057499 234.608159 
L 124.851663 236.894281 
L 125.645828 235.248839 
L 127.234158 234.206854 
L 128.028322 236.214558 
L 128.822487 235.931111 
L 129.616652 236.69045 
L 130.410817 235.364615 
L 131.204981 235.212839 
L 131.999146 233.924464 
L 132.793311 236.293911 
L 133.587476 237.067784 
L 134.38164 238.092208 
L 135.175805 233.905312 
L 135.96997 237.297885 
L 136.764134 235.350164 
L 137.558299 234.091172 
L 138.352464 233.521678 
L 139.940793 237.145734 
L 140.734958 241.459426 
L 142.323288 236.806931 
L 143.117452 237.597602 
L 143.911617 232.463005 
L 144.705782 236.469719 
L 145.499947 235.948995 
L 146.294111 236.127917 
L 147.088276 237.056935 
L 147.882441 236.765499 
L 148.676606 235.338956 
L 149.47077 234.452528 
L 150.264935 234.636815 
L 151.0591 237.12277 
L 151.853265 235.429766 
L 152.647429 237.630694 
L 153.441594 234.787275 
L 154.235759 235.663697 
L 155.029924 235.634406 
L 155.824088 237.555831 
L 156.618253 236.545329 
L 157.412418 234.251867 
L 158.206582 233.778646 
L 159.000747 235.932147 
L 159.794912 236.664309 
L 160.589077 236.81498 
L 161.383241 234.336196 
L 162.177406 237.487761 
L 162.971571 234.861748 
L 163.765736 236.631366 
L 165.354065 235.89918 
L 166.14823 236.87053 
L 166.942395 236.791135 
L 167.736559 236.098897 
L 168.530724 236.337389 
L 169.324889 235.47805 
L 170.119054 236.604008 
L 170.913218 234.500179 
L 171.707383 234.427111 
L 172.501548 234.856546 
L 173.295713 235.079141 
L 174.089877 236.505232 
L 174.884042 235.209913 
L 175.678207 237.064125 
L 176.472371 236.511957 
L 177.266536 235.344404 
L 178.060701 237.724735 
L 179.64903 234.157271 
L 180.443195 235.96439 
L 181.23736 234.430484 
L 182.031525 237.988945 
L 182.825689 234.73216 
L 183.619854 235.222146 
L 184.414019 235.081172 
L 185.208184 237.822542 
L 186.796513 233.788184 
L 187.590678 236.116991 
L 188.384843 235.753014 
L 189.179007 239.309125 
L 189.973172 238.89885 
L 190.767337 236.157635 
L 191.561502 235.955943 
L 192.355666 232.305514 
L 193.149831 232.590637 
L 193.943996 236.136094 
L 194.73816 235.054371 
L 195.532325 235.363711 
L 196.32649 236.830341 
L 197.120655 236.86878 
L 197.914819 238.515951 
L 198.708984 235.965155 
L 199.503149 234.599091 
L 200.297314 236.945314 
L 201.091478 235.496203 
L 201.885643 236.739315 
L 202.679808 234.793306 
L 203.473973 237.385297 
L 204.268137 236.440933 
L 205.062302 236.780959 
L 205.856467 234.256655 
L 206.650632 237.496569 
L 207.444796 236.271834 
L 208.238961 235.521004 
L 209.033126 236.841327 
L 209.827291 235.665487 
L 210.621455 238.045549 
L 211.41562 235.539428 
L 212.209785 236.438719 
L 213.003949 236.780509 
L 213.798114 236.308999 
L 214.592279 233.589717 
L 215.386444 234.859626 
L 216.180608 234.777812 
L 216.974773 236.837752 
L 217.768938 234.480764 
L 218.563103 236.135248 
L 219.357267 236.91563 
L 220.151432 237.251586 
L 220.945597 234.632467 
L 221.739762 237.996073 
L 222.533926 236.937298 
L 223.328091 237.19339 
L 224.122256 235.343721 
L 224.916421 237.507142 
L 225.710585 235.082507 
L 226.50475 235.865905 
L 227.298915 235.382339 
L 228.09308 234.092783 
L 228.887244 237.269823 
L 229.681409 235.356258 
L 230.475574 235.770734 
L 231.269738 236.786963 
L 232.063903 235.378685 
L 232.858068 237.574655 
L 233.652233 236.953622 
L 234.446397 235.031412 
L 235.240562 234.927515 
L 236.034727 234.420755 
L 237.623056 236.082664 
L 238.417221 239.012026 
L 239.211386 236.893772 
L 240.005551 236.377936 
L 240.799715 233.597788 
L 241.59388 236.75481 
L 242.388045 234.473688 
L 243.18221 237.571104 
L 243.976374 233.980842 
L 244.770539 238.384981 
L 245.564704 235.44889 
L 246.358869 236.890986 
L 247.153033 236.371929 
L 247.947198 236.393988 
L 248.741363 236.049842 
L 249.535527 235.264604 
L 250.329692 235.320494 
L 251.123857 234.926624 
L 251.918022 236.412456 
L 252.712186 233.617293 
L 253.506351 235.707778 
L 254.300516 234.906607 
L 255.094681 236.037748 
L 255.888845 236.821231 
L 256.68301 236.326377 
L 257.477175 234.880627 
L 258.27134 237.054053 
L 259.065504 235.609523 
L 259.859669 235.884255 
L 260.653834 235.634768 
L 261.447999 235.519672 
L 262.242163 234.312383 
L 263.036328 237.047619 
L 263.830493 233.924242 
L 264.624658 238.321006 
L 265.418822 234.335586 
L 266.212987 238.265122 
L 267.007152 237.244529 
L 267.801316 237.210485 
L 268.595481 235.929318 
L 270.183811 235.9577 
L 270.977975 234.525845 
L 271.77214 236.980272 
L 272.566305 235.036157 
L 273.36047 236.001778 
L 274.154634 235.30501 
L 274.948799 235.548288 
L 275.742964 235.486629 
L 276.537129 237.363569 
L 277.331293 236.208921 
L 278.125458 235.820361 
L 278.919623 236.765783 
L 279.713788 235.576314 
L 280.507952 235.62225 
L 281.302117 236.759525 
L 282.096282 234.997531 
L 282.890447 237.198614 
L 283.684611 234.062331 
L 284.478776 236.182348 
L 285.272941 235.507366 
L 286.067105 236.744232 
L 286.86127 236.848618 
L 287.655435 237.202957 
L 288.4496 236.934851 
L 289.243764 235.049879 
L 290.037929 237.853375 
L 290.832094 235.251337 
L 291.626259 237.813461 
L 292.420423 237.079061 
L 293.214588 235.507236 
L 294.008753 235.542498 
L 294.802918 235.259826 
L 295.597082 234.098355 
L 296.391247 236.793065 
L 297.185412 233.256006 
L 297.979577 235.819078 
L 299.567906 236.793193 
L 300.362071 237.615181 
L 301.156236 238.190726 
L 301.9504 235.836355 
L 302.744565 236.645127 
L 303.53873 234.520862 
L 304.332895 236.601946 
L 305.127059 235.309502 
L 305.921224 236.038727 
L 306.715389 235.683696 
L 307.509553 238.25017 
L 308.303718 236.19712 
L 309.892048 236.358524 
L 310.686212 234.673744 
L 311.480377 237.414397 
L 312.274542 236.124247 
L 313.068707 235.910352 
L 313.862871 237.672571 
L 314.657036 234.812918 
L 315.451201 234.538028 
L 316.245366 235.16852 
L 317.03953 234.45734 
L 317.833695 235.612686 
L 318.62786 234.146399 
L 319.422025 235.316056 
L 320.216189 235.455711 
L 321.010354 236.868928 
L 322.598684 236.289589 
L 323.392848 236.683373 
L 324.187013 235.694406 
L 324.981178 236.715992 
L 325.775342 236.454669 
L 326.569507 235.437261 
L 327.363672 234.930609 
L 328.157837 233.908908 
L 328.952001 235.920906 
L 329.746166 234.984724 
L 330.540331 234.893956 
L 331.334496 234.311647 
L 332.922825 237.982879 
L 333.71699 239.456681 
L 334.511155 234.456533 
L 335.305319 235.484994 
L 336.099484 232.137519 
L 336.893649 236.398633 
L 337.687814 234.906675 
L 338.481978 235.793474 
L 340.864473 234.920758 
L 341.658637 233.211632 
L 342.452802 233.951649 
L 344.041131 237.707049 
L 344.835296 235.464243 
L 345.629461 235.487226 
L 346.423626 244.991296 
L 347.21779 236.2271 
L 348.011955 234.151351 
L 348.80612 236.460721 
L 350.394449 235.646086 
L 351.188614 233.717807 
L 351.982779 235.467357 
L 352.776944 235.96025 
L 353.571108 235.018468 
L 354.365273 233.435058 
L 355.159438 235.857439 
L 355.953603 235.264986 
L 356.747767 235.805419 
L 357.541932 234.062909 
L 358.336097 236.768916 
L 359.130262 237.625404 
L 359.924426 235.848947 
L 360.718591 236.086151 
L 361.512756 234.126452 
L 362.30692 235.261661 
L 363.101085 235.347014 
L 363.89525 235.757177 
L 364.689415 235.349072 
L 365.483579 238.20756 
L 366.277744 234.735731 
L 367.071909 236.86932 
L 367.866074 237.200996 
L 368.660238 237.173791 
L 369.454403 237.44104 
L 370.248568 236.584034 
L 371.042733 236.781169 
L 371.836897 237.795027 
L 372.631062 234.277616 
L 373.425227 235.312414 
L 374.219392 235.812915 
L 375.013556 237.169946 
L 375.807721 235.172493 
L 376.601886 236.445041 
L 377.396051 237.039299 
L 378.190215 235.719501 
L 378.98438 237.382088 
L 379.778545 235.299928 
L 380.572709 237.163663 
L 381.366874 235.397407 
L 382.161039 235.775367 
L 382.955204 235.108354 
L 383.749368 236.796225 
L 384.543533 235.600552 
L 385.337698 236.950707 
L 386.131863 235.952768 
L 386.926027 237.519889 
L 387.720192 235.744505 
L 388.514357 235.667076 
L 389.308522 234.871902 
L 390.102686 237.807225 
L 390.896851 235.881011 
L 391.691016 235.967555 
L 392.485181 237.94705 
L 393.279345 236.882967 
L 394.07351 233.888152 
L 394.867675 234.091714 
L 395.66184 234.72099 
L 396.456004 237.357212 
L 397.250169 227.612557 
L 398.044334 237.519644 
L 398.838498 237.212984 
L 399.632663 235.043338 
L 400.426828 238.329343 
L 401.220993 236.929035 
L 402.015157 236.810278 
L 402.809322 237.39991 
L 403.603487 236.777636 
L 404.397652 236.414693 
L 405.191816 235.791038 
L 405.985981 235.454417 
L 406.780146 234.037759 
L 407.574311 236.361744 
L 408.368475 237.106473 
L 409.16264 236.802859 
L 409.956805 237.068303 
L 410.75097 234.829541 
L 411.545134 236.486831 
L 412.339299 236.605038 
L 413.133464 234.419532 
L 413.927629 236.033122 
L 414.721793 235.698183 
L 415.515958 236.254486 
L 416.310123 236.127012 
L 417.898452 233.267507 
L 418.692617 235.783247 
L 419.486782 232.85828 
L 420.280946 234.952907 
L 421.075111 235.707371 
L 421.869276 236.116429 
L 422.663441 235.263089 
L 423.457605 236.520514 
L 424.25177 235.703176 
L 425.045935 236.803364 
L 425.8401 236.052118 
L 426.634264 236.308022 
L 427.428429 236.803979 
L 428.222594 236.196451 
L 429.016759 234.767671 
L 429.810923 236.967174 
L 430.605088 234.789237 
L 431.399253 235.262969 
L 432.193418 235.416042 
L 432.987582 234.494629 
L 433.781747 235.664161 
L 434.575912 236.274784 
L 435.370076 235.939109 
L 436.164241 236.081017 
L 436.958406 236.890289 
L 437.752571 237.536523 
L 438.546735 236.714814 
L 440.135065 235.608873 
L 440.92923 236.277354 
L 441.723394 234.85931 
L 442.517559 235.323548 
L 443.311724 234.06633 
L 444.105889 236.131591 
L 444.900053 235.991355 
L 445.694218 237.478341 
L 446.488383 235.901133 
L 447.282548 236.337875 
L 448.076712 237.029971 
L 448.870877 234.893066 
L 449.665042 236.832519 
L 450.459207 236.86188 
L 451.253371 236.585764 
L 452.047536 234.597485 
L 452.841701 236.590319 
L 453.635866 235.832197 
L 454.43003 236.409112 
L 455.224195 234.595261 
L 456.01836 235.320484 
L 456.812524 235.572558 
L 457.606689 236.289245 
L 458.400854 234.233621 
L 459.195019 237.010341 
L 459.989183 236.955147 
L 460.783348 236.669748 
L 461.577513 236.883615 
L 462.371678 235.36327 
L 463.960007 236.47748 
L 464.754172 234.297278 
L 465.548337 237.540775 
L 466.342501 236.399485 
L 467.136666 235.64429 
L 467.930831 236.314243 
L 468.724996 236.117904 
L 469.51916 237.618776 
L 470.313325 235.660664 
L 471.10749 236.727078 
L 471.901655 236.98837 
L 472.695819 236.737966 
L 473.489984 234.876472 
L 474.284149 236.194746 
L 475.078313 236.483614 
L 475.872478 236.650037 
L 476.666643 234.474005 
L 477.460808 234.920363 
L 478.254972 235.011659 
L 479.049137 236.632997 
L 479.843302 235.351717 
L 480.637467 235.045553 
L 481.431631 236.785838 
L 482.225796 235.662642 
L 483.814126 235.905644 
L 484.60829 235.547795 
L 485.402455 236.971018 
L 486.19662 234.660296 
L 486.990785 238.275815 
L 487.784949 235.872202 
L 488.579114 236.073142 
L 489.373279 235.260097 
L 490.167444 235.196 
L 490.961608 236.796329 
L 491.755773 234.989976 
L 492.549938 236.525185 
L 493.344102 234.578468 
L 494.138267 237.908169 
L 494.932432 237.226756 
L 495.726597 235.279341 
L 496.520761 235.509058 
L 497.314926 235.914026 
L 498.109091 234.595406 
L 498.109091 234.595406 
" style="fill:none;stroke:#1f77b4;stroke-linecap:square;stroke-width:1.5;"/>
   </g>
   <g id="patch_3">
    <path d="M 72 256.32 
L 72 34.56 
" style="fill:none;stroke:#000000;stroke-linecap:square;stroke-linejoin:miter;stroke-width:0.8;"/>
   </g>
   <g id="patch_4">
    <path d="M 518.4 256.32 
L 518.4 34.56 
" style="fill:none;stroke:#000000;stroke-linecap:square;stroke-linejoin:miter;stroke-width:0.8;"/>
   </g>
   <g id="patch_5">
    <path d="M 72 256.32 
L 518.4 256.32 
" style="fill:none;stroke:#000000;stroke-linecap:square;stroke-linejoin:miter;stroke-width:0.8;"/>
   </g>
   <g id="patch_6">
    <path d="M 72 34.56 
L 518.4 34.56 
" style="fill:none;stroke:#000000;stroke-linecap:square;stroke-linejoin:miter;stroke-width:0.8;"/>
   </g>
   <g id="text_17">
    <!-- Impulsni odezva rousky -->
    <g transform="translate(224.61 28.56)scale(0.12 -0.12)">
     <defs>
      <path d="M 628 4666 
L 1259 4666 
L 1259 0 
L 628 0 
L 628 4666 
z
" id="DejaVuSans-49" transform="scale(0.015625)"/>
      <path d="M 3328 2828 
Q 3544 3216 3844 3400 
Q 4144 3584 4550 3584 
Q 5097 3584 5394 3201 
Q 5691 2819 5691 2113 
L 5691 0 
L 5113 0 
L 5113 2094 
Q 5113 2597 4934 2840 
Q 4756 3084 4391 3084 
Q 3944 3084 3684 2787 
Q 3425 2491 3425 1978 
L 3425 0 
L 2847 0 
L 2847 2094 
Q 2847 2600 2669 2842 
Q 2491 3084 2119 3084 
Q 1678 3084 1418 2786 
Q 1159 2488 1159 1978 
L 1159 0 
L 581 0 
L 581 3500 
L 1159 3500 
L 1159 2956 
Q 1356 3278 1631 3431 
Q 1906 3584 2284 3584 
Q 2666 3584 2933 3390 
Q 3200 3197 3328 2828 
z
" id="DejaVuSans-6d" transform="scale(0.015625)"/>
      <path d="M 1159 525 
L 1159 -1331 
L 581 -1331 
L 581 3500 
L 1159 3500 
L 1159 2969 
Q 1341 3281 1617 3432 
Q 1894 3584 2278 3584 
Q 2916 3584 3314 3078 
Q 3713 2572 3713 1747 
Q 3713 922 3314 415 
Q 2916 -91 2278 -91 
Q 1894 -91 1617 61 
Q 1341 213 1159 525 
z
M 3116 1747 
Q 3116 2381 2855 2742 
Q 2594 3103 2138 3103 
Q 1681 3103 1420 2742 
Q 1159 2381 1159 1747 
Q 1159 1113 1420 752 
Q 1681 391 2138 391 
Q 2594 391 2855 752 
Q 3116 1113 3116 1747 
z
" id="DejaVuSans-70" transform="scale(0.015625)"/>
      <path d="M 544 1381 
L 544 3500 
L 1119 3500 
L 1119 1403 
Q 1119 906 1312 657 
Q 1506 409 1894 409 
Q 2359 409 2629 706 
Q 2900 1003 2900 1516 
L 2900 3500 
L 3475 3500 
L 3475 0 
L 2900 0 
L 2900 538 
Q 2691 219 2414 64 
Q 2138 -91 1772 -91 
Q 1169 -91 856 284 
Q 544 659 544 1381 
z
M 1991 3584 
L 1991 3584 
z
" id="DejaVuSans-75" transform="scale(0.015625)"/>
      <path d="M 603 4863 
L 1178 4863 
L 1178 0 
L 603 0 
L 603 4863 
z
" id="DejaVuSans-6c" transform="scale(0.015625)"/>
      <path d="M 2834 3397 
L 2834 2853 
Q 2591 2978 2328 3040 
Q 2066 3103 1784 3103 
Q 1356 3103 1142 2972 
Q 928 2841 928 2578 
Q 928 2378 1081 2264 
Q 1234 2150 1697 2047 
L 1894 2003 
Q 2506 1872 2764 1633 
Q 3022 1394 3022 966 
Q 3022 478 2636 193 
Q 2250 -91 1575 -91 
Q 1294 -91 989 -36 
Q 684 19 347 128 
L 347 722 
Q 666 556 975 473 
Q 1284 391 1588 391 
Q 1994 391 2212 530 
Q 2431 669 2431 922 
Q 2431 1156 2273 1281 
Q 2116 1406 1581 1522 
L 1381 1569 
Q 847 1681 609 1914 
Q 372 2147 372 2553 
Q 372 3047 722 3315 
Q 1072 3584 1716 3584 
Q 2034 3584 2315 3537 
Q 2597 3491 2834 3397 
z
" id="DejaVuSans-73" transform="scale(0.015625)"/>
      <path d="M 603 3500 
L 1178 3500 
L 1178 0 
L 603 0 
L 603 3500 
z
M 603 4863 
L 1178 4863 
L 1178 4134 
L 603 4134 
L 603 4863 
z
" id="DejaVuSans-69" transform="scale(0.015625)"/>
      <path id="DejaVuSans-20" transform="scale(0.015625)"/>
      <path d="M 1959 3097 
Q 1497 3097 1228 2736 
Q 959 2375 959 1747 
Q 959 1119 1226 758 
Q 1494 397 1959 397 
Q 2419 397 2687 759 
Q 2956 1122 2956 1747 
Q 2956 2369 2687 2733 
Q 2419 3097 1959 3097 
z
M 1959 3584 
Q 2709 3584 3137 3096 
Q 3566 2609 3566 1747 
Q 3566 888 3137 398 
Q 2709 -91 1959 -91 
Q 1206 -91 779 398 
Q 353 888 353 1747 
Q 353 2609 779 3096 
Q 1206 3584 1959 3584 
z
" id="DejaVuSans-6f" transform="scale(0.015625)"/>
      <path d="M 2906 2969 
L 2906 4863 
L 3481 4863 
L 3481 0 
L 2906 0 
L 2906 525 
Q 2725 213 2448 61 
Q 2172 -91 1784 -91 
Q 1150 -91 751 415 
Q 353 922 353 1747 
Q 353 2572 751 3078 
Q 1150 3584 1784 3584 
Q 2172 3584 2448 3432 
Q 2725 3281 2906 2969 
z
M 947 1747 
Q 947 1113 1208 752 
Q 1469 391 1925 391 
Q 2381 391 2643 752 
Q 2906 1113 2906 1747 
Q 2906 2381 2643 2742 
Q 2381 3103 1925 3103 
Q 1469 3103 1208 2742 
Q 947 2381 947 1747 
z
" id="DejaVuSans-64" transform="scale(0.015625)"/>
      <path d="M 3597 1894 
L 3597 1613 
L 953 1613 
Q 991 1019 1311 708 
Q 1631 397 2203 397 
Q 2534 397 2845 478 
Q 3156 559 3463 722 
L 3463 178 
Q 3153 47 2828 -22 
Q 2503 -91 2169 -91 
Q 1331 -91 842 396 
Q 353 884 353 1716 
Q 353 2575 817 3079 
Q 1281 3584 2069 3584 
Q 2775 3584 3186 3129 
Q 3597 2675 3597 1894 
z
M 3022 2063 
Q 3016 2534 2758 2815 
Q 2500 3097 2075 3097 
Q 1594 3097 1305 2825 
Q 1016 2553 972 2059 
L 3022 2063 
z
" id="DejaVuSans-65" transform="scale(0.015625)"/>
      <path d="M 353 3500 
L 3084 3500 
L 3084 2975 
L 922 459 
L 3084 459 
L 3084 0 
L 275 0 
L 275 525 
L 2438 3041 
L 353 3041 
L 353 3500 
z
" id="DejaVuSans-7a" transform="scale(0.015625)"/>
      <path d="M 191 3500 
L 800 3500 
L 1894 563 
L 2988 3500 
L 3597 3500 
L 2284 0 
L 1503 0 
L 191 3500 
z
" id="DejaVuSans-76" transform="scale(0.015625)"/>
      <path d="M 2194 1759 
Q 1497 1759 1228 1600 
Q 959 1441 959 1056 
Q 959 750 1161 570 
Q 1363 391 1709 391 
Q 2188 391 2477 730 
Q 2766 1069 2766 1631 
L 2766 1759 
L 2194 1759 
z
M 3341 1997 
L 3341 0 
L 2766 0 
L 2766 531 
Q 2569 213 2275 61 
Q 1981 -91 1556 -91 
Q 1019 -91 701 211 
Q 384 513 384 1019 
Q 384 1609 779 1909 
Q 1175 2209 1959 2209 
L 2766 2209 
L 2766 2266 
Q 2766 2663 2505 2880 
Q 2244 3097 1772 3097 
Q 1472 3097 1187 3025 
Q 903 2953 641 2809 
L 641 3341 
Q 956 3463 1253 3523 
Q 1550 3584 1831 3584 
Q 2591 3584 2966 3190 
Q 3341 2797 3341 1997 
z
" id="DejaVuSans-61" transform="scale(0.015625)"/>
      <path d="M 2631 2963 
Q 2534 3019 2420 3045 
Q 2306 3072 2169 3072 
Q 1681 3072 1420 2755 
Q 1159 2438 1159 1844 
L 1159 0 
L 581 0 
L 581 3500 
L 1159 3500 
L 1159 2956 
Q 1341 3275 1631 3429 
Q 1922 3584 2338 3584 
Q 2397 3584 2469 3576 
Q 2541 3569 2628 3553 
L 2631 2963 
z
" id="DejaVuSans-72" transform="scale(0.015625)"/>
      <path d="M 581 4863 
L 1159 4863 
L 1159 1991 
L 2875 3500 
L 3609 3500 
L 1753 1863 
L 3688 0 
L 2938 0 
L 1159 1709 
L 1159 0 
L 581 0 
L 581 4863 
z
" id="DejaVuSans-6b" transform="scale(0.015625)"/>
      <path d="M 2059 -325 
Q 1816 -950 1584 -1140 
Q 1353 -1331 966 -1331 
L 506 -1331 
L 506 -850 
L 844 -850 
Q 1081 -850 1212 -737 
Q 1344 -625 1503 -206 
L 1606 56 
L 191 3500 
L 800 3500 
L 1894 763 
L 2988 3500 
L 3597 3500 
L 2059 -325 
z
" id="DejaVuSans-79" transform="scale(0.015625)"/>
     </defs>
     <use xlink:href="#DejaVuSans-49"/>
     <use x="29.492188" xlink:href="#DejaVuSans-6d"/>
     <use x="126.904297" xlink:href="#DejaVuSans-70"/>
     <use x="190.380859" xlink:href="#DejaVuSans-75"/>
     <use x="253.759766" xlink:href="#DejaVuSans-6c"/>
     <use x="281.542969" xlink:href="#DejaVuSans-73"/>
     <use x="333.642578" xlink:href="#DejaVuSans-6e"/>
     <use x="397.021484" xlink:href="#DejaVuSans-69"/>
     <use x="424.804688" xlink:href="#DejaVuSans-20"/>
     <use x="456.591797" xlink:href="#DejaVuSans-6f"/>
     <use x="517.773438" xlink:href="#DejaVuSans-64"/>
     <use x="581.25" xlink:href="#DejaVuSans-65"/>
     <use x="642.773438" xlink:href="#DejaVuSans-7a"/>
     <use x="695.263672" xlink:href="#DejaVuSans-76"/>
     <use x="754.443359" xlink:href="#DejaVuSans-61"/>
     <use x="815.722656" xlink:href="#DejaVuSans-20"/>
     <use x="847.509766" xlink:href="#DejaVuSans-72"/>
     <use x="886.373047" xlink:href="#DejaVuSans-6f"/>
     <use x="947.554688" xlink:href="#DejaVuSans-75"/>
     <use x="1010.933594" xlink:href="#DejaVuSans-73"/>
     <use x="1063.033203" xlink:href="#DejaVuSans-6b"/>
     <use x="1117.318359" xlink:href="#DejaVuSans-79"/>
    </g>
   </g>
  </g>
 </g>
 <defs>
  <clipPath id="p743dafd578">
   <rect height="221.76" width="446.4" x="72" y="34.56"/>
  </clipPath>
 </defs>
</svg>
